<mxfile host="Electron" agent="Mozilla/5.0 (X11; Linux x86_64) AppleWebKit/537.36 (KHTML, like Gecko) draw.io/26.1.1 Chrome/132.0.6834.210 Electron/34.3.3 Safari/537.36" version="26.1.1">
  <diagram name="Page-1" id="0DwCtNNWeYz1oYwNfUSu">
    <mxGraphModel dx="9085" dy="4078" grid="1" gridSize="10" guides="1" tooltips="1" connect="1" arrows="1" fold="1" page="1" pageScale="1" pageWidth="850" pageHeight="1100" math="0" shadow="0">
      <root>
        <mxCell id="0" />
        <mxCell id="1" parent="0" />
        <mxCell id="WLGKky_bHdKj5OCefhs1-1" value="&lt;font style=&quot;font-size: 38px;&quot;&gt;DLK eFTI Project Simplified Components and&amp;nbsp;&lt;span style=&quot;background-color: transparent; color: light-dark(rgb(0, 0, 0), rgb(255, 255, 255));&quot;&gt;Architecture Diagram&lt;/span&gt;&lt;/font&gt;" style="shape=umlFrame;whiteSpace=wrap;html=1;pointerEvents=0;width=460;height=240;" parent="1" vertex="1">
          <mxGeometry x="-920" y="-320" width="4640" height="2600" as="geometry" />
        </mxCell>
        <mxCell id="WLGKky_bHdKj5OCefhs1-268" style="edgeStyle=orthogonalEdgeStyle;rounded=0;orthogonalLoop=1;jettySize=auto;html=1;exitX=0;exitY=0;exitDx=1200;exitDy=785;exitPerimeter=0;strokeWidth=7;startArrow=classic;startFill=1;" parent="1" source="WLGKky_bHdKj5OCefhs1-18" target="WLGKky_bHdKj5OCefhs1-143" edge="1">
          <mxGeometry relative="1" as="geometry">
            <Array as="points">
              <mxPoint x="1005" y="1250" />
              <mxPoint x="1240" y="1250" />
            </Array>
          </mxGeometry>
        </mxCell>
        <mxCell id="WLGKky_bHdKj5OCefhs1-18" value="&lt;font style=&quot;font-size: 40px;&quot;&gt;eFTI Gate&lt;/font&gt;" style="verticalAlign=top;align=left;spacingTop=8;spacingLeft=2;spacingRight=12;shape=cube;size=10;direction=south;fontStyle=4;html=1;whiteSpace=wrap;strokeWidth=5;fillColor=#ffe6cc;strokeColor=#d79b00;" parent="1" vertex="1">
          <mxGeometry x="230" y="-150" width="1560" height="1200" as="geometry" />
        </mxCell>
        <mxCell id="WLGKky_bHdKj5OCefhs1-19" value="API Key Authentication" style="shape=module;align=left;spacingLeft=20;align=center;verticalAlign=top;whiteSpace=wrap;html=1;" parent="1" vertex="1">
          <mxGeometry x="1070" y="300" width="140" height="80" as="geometry" />
        </mxCell>
        <mxCell id="WLGKky_bHdKj5OCefhs1-20" value="Platform REST API&lt;span style=&quot;color: rgba(0, 0, 0, 0); font-family: monospace; font-size: 0px; text-align: start; text-wrap-mode: nowrap;&quot;&gt;%3CmxGraphModel%3E%3Croot%3E%3CmxCell%20id%3D%220%22%2F%3E%3CmxCell%20id%3D%221%22%20parent%3D%220%22%2F%3E%3CmxCell%20id%3D%222%22%20value%3D%22API%20Key%20Authentication%22%20style%3D%22shape%3Dmodule%3Balign%3Dleft%3BspacingLeft%3D20%3Balign%3Dcenter%3BverticalAlign%3Dtop%3BwhiteSpace%3Dwrap%3Bhtml%3D1%3B%22%20vertex%3D%221%22%20parent%3D%221%22%3E%3CmxGeometry%20x%3D%22610%22%20y%3D%22270%22%20width%3D%22320%22%20height%3D%2290%22%20as%3D%22geometry%22%2F%3E%3C%2FmxCell%3E%3C%2Froot%3E%3C%2FmxGraphModel%3E&lt;/span&gt;" style="shape=module;align=left;spacingLeft=20;align=center;verticalAlign=top;whiteSpace=wrap;html=1;" parent="1" vertex="1">
          <mxGeometry x="1540" y="300" width="180" height="100" as="geometry" />
        </mxCell>
        <mxCell id="WLGKky_bHdKj5OCefhs1-21" value="Authority REST API [Syncronous]&lt;span style=&quot;color: rgba(0, 0, 0, 0); font-family: monospace; font-size: 0px; text-align: start; text-wrap-mode: nowrap;&quot;&gt;%3CmxGraphModel%3E%3Croot%3E%3CmxCell%20id%3D%220%22%2F%3E%3CmxCell%20id%3D%221%22%20parent%3D%220%22%2F%3E%3CmxCell%20id%3D%222%22%20value%3D%22API%20Key%20Authentication%22%20style%3D%22shape%3Dmodule%3Balign%3Dleft%3BspacingLeft%3D20%3Balign%3Dcenter%3BverticalAlign%3Dtop%3BwhiteSpace%3Dwrap%3Bhtml%3D1%3B%22%20vertex%3D%221%22%20parent%3D%221%22%3E%3CmxGeometry%20x%3D%22610%22%20y%3D%22270%22%20width%3D%22320%22%20height%3D%2290%22%20as%3D%22geometry%22%2F%3E%3C%2FmxCell%3E%3C%2Froot%3E%3C%2FmxGraphModel%3E&lt;/span&gt;" style="shape=module;align=left;spacingLeft=20;align=center;verticalAlign=top;whiteSpace=wrap;html=1;" parent="1" vertex="1">
          <mxGeometry x="1540" y="540" width="180" height="240" as="geometry" />
        </mxCell>
        <mxCell id="WLGKky_bHdKj5OCefhs1-22" value="Gate eDelivery API&lt;span style=&quot;color: rgba(0, 0, 0, 0); font-family: monospace; font-size: 0px; text-align: start; text-wrap-mode: nowrap;&quot;&gt;%3CmxGraphModel%3E%3Croot%3E%3CmxCell%20id%3D%220%22%2F%3E%3CmxCell%20id%3D%221%22%20parent%3D%220%22%2F%3E%3CmxCell%20id%3D%222%22%20value%3D%22API%20Key%20Authentication%22%20style%3D%22shape%3Dmodule%3Balign%3Dleft%3BspacingLeft%3D20%3Balign%3Dcenter%3BverticalAlign%3Dtop%3BwhiteSpace%3Dwrap%3Bhtml%3D1%3B%22%20vertex%3D%221%22%20parent%3D%221%22%3E%3CmxGeometry%20x%3D%22610%22%20y%3D%22270%22%20width%3D%22320%22%20height%3D%2290%22%20as%3D%22geometry%22%2F%3E%3C%2FmxCell%3E%3C%2Froot%3E%3C%2FmxGraphModel%3E&lt;/span&gt;" style="shape=module;align=left;spacingLeft=20;align=center;verticalAlign=top;whiteSpace=wrap;html=1;" parent="1" vertex="1">
          <mxGeometry x="1540" y="420" width="180" height="100" as="geometry" />
        </mxCell>
        <mxCell id="WLGKky_bHdKj5OCefhs1-24" value="«interface»&lt;br&gt;&lt;b&gt;Dataset&lt;/b&gt;" style="html=1;whiteSpace=wrap;" parent="1" vertex="1">
          <mxGeometry x="1590" y="590" width="110" height="50" as="geometry" />
        </mxCell>
        <mxCell id="WLGKky_bHdKj5OCefhs1-25" value="«interface»&lt;br&gt;&lt;b&gt;Identifiers&lt;/b&gt;" style="html=1;whiteSpace=wrap;" parent="1" vertex="1">
          <mxGeometry x="1590" y="650" width="110" height="50" as="geometry" />
        </mxCell>
        <mxCell id="WLGKky_bHdKj5OCefhs1-26" value="«interface»&lt;br&gt;&lt;b&gt;Follow-Up&lt;/b&gt;" style="html=1;whiteSpace=wrap;" parent="1" vertex="1">
          <mxGeometry x="1590" y="710" width="110" height="50" as="geometry" />
        </mxCell>
        <mxCell id="WLGKky_bHdKj5OCefhs1-44" value="Registry of Identifiers" style="shape=module;align=left;spacingLeft=20;align=center;verticalAlign=top;whiteSpace=wrap;html=1;" parent="1" vertex="1">
          <mxGeometry x="710" y="300" width="180" height="70" as="geometry" />
        </mxCell>
        <mxCell id="WLGKky_bHdKj5OCefhs1-45" value="&lt;font style=&quot;font-size: 24px;&quot;&gt;Exposed APIs&lt;/font&gt;" style="shape=umlFrame;whiteSpace=wrap;html=1;pointerEvents=0;width=200;height=40;" parent="1" vertex="1">
          <mxGeometry x="1310" y="280" width="430" height="740" as="geometry" />
        </mxCell>
        <mxCell id="WLGKky_bHdKj5OCefhs1-49" style="edgeStyle=orthogonalEdgeStyle;rounded=0;orthogonalLoop=1;jettySize=auto;html=1;entryX=1;entryY=0.5;entryDx=0;entryDy=0;" parent="1" source="WLGKky_bHdKj5OCefhs1-46" target="WLGKky_bHdKj5OCefhs1-44" edge="1">
          <mxGeometry relative="1" as="geometry">
            <Array as="points">
              <mxPoint x="1195" y="355" />
              <mxPoint x="1195" y="335" />
            </Array>
          </mxGeometry>
        </mxCell>
        <mxCell id="WLGKky_bHdKj5OCefhs1-51" value="Platform Uploads new Identifiers&amp;nbsp;&lt;div&gt;to the registry of identifiers&lt;/div&gt;" style="edgeLabel;html=1;align=center;verticalAlign=middle;resizable=0;points=[];" parent="WLGKky_bHdKj5OCefhs1-49" vertex="1" connectable="0">
          <mxGeometry x="0.6073" y="1" relative="1" as="geometry">
            <mxPoint x="316" y="19" as="offset" />
          </mxGeometry>
        </mxCell>
        <mxCell id="WLGKky_bHdKj5OCefhs1-46" value="«interface»&lt;br&gt;&lt;b&gt;Identifiers&lt;/b&gt;" style="html=1;whiteSpace=wrap;" parent="1" vertex="1">
          <mxGeometry x="1590" y="330" width="110" height="50" as="geometry" />
        </mxCell>
        <mxCell id="WLGKky_bHdKj5OCefhs1-47" value="«interface»&lt;br&gt;&lt;b&gt;AP receive&lt;/b&gt;" style="html=1;whiteSpace=wrap;" parent="1" vertex="1">
          <mxGeometry x="1590" y="455" width="110" height="50" as="geometry" />
        </mxCell>
        <mxCell id="WLGKky_bHdKj5OCefhs1-48" value="&lt;font style=&quot;font-size: 24px;&quot;&gt;Private APIs&lt;/font&gt;" style="shape=umlFrame;whiteSpace=wrap;html=1;pointerEvents=0;width=150;height=50;" parent="1" vertex="1">
          <mxGeometry x="390" y="280" width="530" height="740" as="geometry" />
        </mxCell>
        <mxCell id="WLGKky_bHdKj5OCefhs1-234" style="edgeStyle=orthogonalEdgeStyle;rounded=0;orthogonalLoop=1;jettySize=auto;html=1;exitX=0;exitY=0;exitDx=0;exitDy=35;exitPerimeter=0;entryX=1;entryY=0.25;entryDx=0;entryDy=0;" parent="1" source="WLGKky_bHdKj5OCefhs1-52" target="WLGKky_bHdKj5OCefhs1-57" edge="1">
          <mxGeometry relative="1" as="geometry">
            <Array as="points">
              <mxPoint x="700" y="425" />
              <mxPoint x="700" y="480" />
              <mxPoint x="910" y="480" />
              <mxPoint x="910" y="527" />
            </Array>
          </mxGeometry>
        </mxCell>
        <mxCell id="WLGKky_bHdKj5OCefhs1-235" style="edgeStyle=orthogonalEdgeStyle;rounded=0;orthogonalLoop=1;jettySize=auto;html=1;exitX=0;exitY=0;exitDx=0;exitDy=35;exitPerimeter=0;entryX=1;entryY=0.25;entryDx=0;entryDy=0;" parent="1" source="WLGKky_bHdKj5OCefhs1-52" target="WLGKky_bHdKj5OCefhs1-61" edge="1">
          <mxGeometry relative="1" as="geometry">
            <Array as="points">
              <mxPoint x="700" y="425" />
              <mxPoint x="700" y="480" />
              <mxPoint x="910" y="480" />
              <mxPoint x="910" y="617" />
            </Array>
          </mxGeometry>
        </mxCell>
        <mxCell id="WLGKky_bHdKj5OCefhs1-236" style="edgeStyle=orthogonalEdgeStyle;rounded=0;orthogonalLoop=1;jettySize=auto;html=1;exitX=0;exitY=0;exitDx=0;exitDy=35;exitPerimeter=0;entryX=1;entryY=0.25;entryDx=0;entryDy=0;" parent="1" source="WLGKky_bHdKj5OCefhs1-52" target="WLGKky_bHdKj5OCefhs1-67" edge="1">
          <mxGeometry relative="1" as="geometry">
            <Array as="points">
              <mxPoint x="700" y="425" />
              <mxPoint x="700" y="480" />
              <mxPoint x="910" y="480" />
              <mxPoint x="910" y="707" />
            </Array>
          </mxGeometry>
        </mxCell>
        <mxCell id="WLGKky_bHdKj5OCefhs1-52" value="Edelivery Service" style="shape=module;align=left;spacingLeft=20;align=center;verticalAlign=top;whiteSpace=wrap;html=1;" parent="1" vertex="1">
          <mxGeometry x="710" y="390" width="180" height="70" as="geometry" />
        </mxCell>
        <mxCell id="WLGKky_bHdKj5OCefhs1-56" value="Edelivery sending Service" style="shape=module;align=left;spacingLeft=20;align=center;verticalAlign=top;whiteSpace=wrap;html=1;" parent="1" vertex="1">
          <mxGeometry x="460" y="390" width="140" height="70" as="geometry" />
        </mxCell>
        <mxCell id="WLGKky_bHdKj5OCefhs1-58" style="edgeStyle=orthogonalEdgeStyle;rounded=0;orthogonalLoop=1;jettySize=auto;html=1;entryX=1;entryY=0.75;entryDx=0;entryDy=0;" parent="1" source="WLGKky_bHdKj5OCefhs1-57" target="WLGKky_bHdKj5OCefhs1-56" edge="1">
          <mxGeometry relative="1" as="geometry" />
        </mxCell>
        <mxCell id="WLGKky_bHdKj5OCefhs1-78" style="edgeStyle=orthogonalEdgeStyle;rounded=0;orthogonalLoop=1;jettySize=auto;html=1;exitX=0;exitY=0;exitDx=0;exitDy=15;exitPerimeter=0;entryX=1;entryY=0.5;entryDx=0;entryDy=0;" parent="1" source="WLGKky_bHdKj5OCefhs1-57" target="WLGKky_bHdKj5OCefhs1-77" edge="1">
          <mxGeometry relative="1" as="geometry" />
        </mxCell>
        <mxCell id="WLGKky_bHdKj5OCefhs1-57" value="Dataset Service" style="shape=module;align=left;spacingLeft=20;align=center;verticalAlign=top;whiteSpace=wrap;html=1;" parent="1" vertex="1">
          <mxGeometry x="710" y="510" width="180" height="70" as="geometry" />
        </mxCell>
        <mxCell id="WLGKky_bHdKj5OCefhs1-64" style="edgeStyle=orthogonalEdgeStyle;rounded=0;orthogonalLoop=1;jettySize=auto;html=1;exitX=0;exitY=0;exitDx=0;exitDy=15;exitPerimeter=0;entryX=1;entryY=0.5;entryDx=0;entryDy=0;" parent="1" source="WLGKky_bHdKj5OCefhs1-61" target="WLGKky_bHdKj5OCefhs1-56" edge="1">
          <mxGeometry relative="1" as="geometry">
            <Array as="points">
              <mxPoint x="640" y="615" />
              <mxPoint x="640" y="425" />
            </Array>
          </mxGeometry>
        </mxCell>
        <mxCell id="WLGKky_bHdKj5OCefhs1-61" value="Identifiers Service" style="shape=module;align=left;spacingLeft=20;align=center;verticalAlign=top;whiteSpace=wrap;html=1;" parent="1" vertex="1">
          <mxGeometry x="710" y="600" width="180" height="70" as="geometry" />
        </mxCell>
        <mxCell id="WLGKky_bHdKj5OCefhs1-63" style="edgeStyle=orthogonalEdgeStyle;rounded=0;orthogonalLoop=1;jettySize=auto;html=1;entryX=0;entryY=0;entryDx=0;entryDy=35;entryPerimeter=0;" parent="1" source="WLGKky_bHdKj5OCefhs1-61" target="WLGKky_bHdKj5OCefhs1-44" edge="1">
          <mxGeometry relative="1" as="geometry">
            <Array as="points">
              <mxPoint x="690" y="635" />
              <mxPoint x="690" y="335" />
            </Array>
          </mxGeometry>
        </mxCell>
        <mxCell id="WLGKky_bHdKj5OCefhs1-69" style="edgeStyle=orthogonalEdgeStyle;rounded=0;orthogonalLoop=1;jettySize=auto;html=1;exitX=0;exitY=0;exitDx=0;exitDy=15;exitPerimeter=0;entryX=1;entryY=0.25;entryDx=0;entryDy=0;" parent="1" source="WLGKky_bHdKj5OCefhs1-67" target="WLGKky_bHdKj5OCefhs1-56" edge="1">
          <mxGeometry relative="1" as="geometry">
            <Array as="points">
              <mxPoint x="620" y="705" />
              <mxPoint x="620" y="408" />
            </Array>
          </mxGeometry>
        </mxCell>
        <mxCell id="WLGKky_bHdKj5OCefhs1-80" style="edgeStyle=orthogonalEdgeStyle;rounded=0;orthogonalLoop=1;jettySize=auto;html=1;entryX=1;entryY=1;entryDx=0;entryDy=0;" parent="1" source="WLGKky_bHdKj5OCefhs1-67" target="WLGKky_bHdKj5OCefhs1-77" edge="1">
          <mxGeometry relative="1" as="geometry" />
        </mxCell>
        <mxCell id="WLGKky_bHdKj5OCefhs1-67" value="Follow-Up Service" style="shape=module;align=left;spacingLeft=20;align=center;verticalAlign=top;whiteSpace=wrap;html=1;" parent="1" vertex="1">
          <mxGeometry x="710" y="690" width="180" height="70" as="geometry" />
        </mxCell>
        <mxCell id="WLGKky_bHdKj5OCefhs1-72" value="Administration REST API&lt;span style=&quot;color: rgba(0, 0, 0, 0); font-family: monospace; font-size: 0px; text-align: start; text-wrap-mode: nowrap;&quot;&gt;%3CmxGraphModel%3E%3Croot%3E%3CmxCell%20id%3D%220%22%2F%3E%3CmxCell%20id%3D%221%22%20parent%3D%220%22%2F%3E%3CmxCell%20id%3D%222%22%20value%3D%22API%20Key%20Authentication%22%20style%3D%22shape%3Dmodule%3Balign%3Dleft%3BspacingLeft%3D20%3Balign%3Dcenter%3BverticalAlign%3Dtop%3BwhiteSpace%3Dwrap%3Bhtml%3D1%3B%22%20vertex%3D%221%22%20parent%3D%221%22%3E%3CmxGeometry%20x%3D%22610%22%20y%3D%22270%22%20width%3D%22320%22%20height%3D%2290%22%20as%3D%22geometry%22%2F%3E%3C%2FmxCell%3E%3C%2Froot%3E%3C%2FmxGraphModel%3E&lt;/span&gt;" style="shape=module;align=left;spacingLeft=20;align=center;verticalAlign=top;whiteSpace=wrap;html=1;" parent="1" vertex="1">
          <mxGeometry x="1540" y="810" width="180" height="100" as="geometry" />
        </mxCell>
        <mxCell id="WLGKky_bHdKj5OCefhs1-73" value="«interface»&lt;br&gt;&lt;b&gt;Admin&lt;/b&gt;" style="html=1;whiteSpace=wrap;" parent="1" vertex="1">
          <mxGeometry x="1590" y="840" width="110" height="50" as="geometry" />
        </mxCell>
        <mxCell id="WLGKky_bHdKj5OCefhs1-74" value="Gate Administration Service" style="shape=module;align=left;spacingLeft=20;align=center;verticalAlign=top;whiteSpace=wrap;html=1;" parent="1" vertex="1">
          <mxGeometry x="710" y="890" width="180" height="90" as="geometry" />
        </mxCell>
        <mxCell id="WLGKky_bHdKj5OCefhs1-77" value="Platform sending Service" style="shape=module;align=left;spacingLeft=20;align=center;verticalAlign=top;whiteSpace=wrap;html=1;" parent="1" vertex="1">
          <mxGeometry x="460" y="490" width="140" height="70" as="geometry" />
        </mxCell>
        <mxCell id="WLGKky_bHdKj5OCefhs1-53" style="edgeStyle=orthogonalEdgeStyle;rounded=0;orthogonalLoop=1;jettySize=auto;html=1;entryX=1;entryY=0.5;entryDx=0;entryDy=0;exitX=0;exitY=0.5;exitDx=0;exitDy=0;" parent="1" source="WLGKky_bHdKj5OCefhs1-47" target="WLGKky_bHdKj5OCefhs1-52" edge="1">
          <mxGeometry relative="1" as="geometry">
            <Array as="points">
              <mxPoint x="1170" y="480" />
              <mxPoint x="1170" y="425" />
            </Array>
          </mxGeometry>
        </mxCell>
        <mxCell id="WLGKky_bHdKj5OCefhs1-54" value="Routes eDelivery request&lt;div&gt;to their corresponding service&lt;/div&gt;" style="edgeLabel;html=1;align=center;verticalAlign=middle;resizable=0;points=[];" parent="WLGKky_bHdKj5OCefhs1-53" vertex="1" connectable="0">
          <mxGeometry x="0.6093" relative="1" as="geometry">
            <mxPoint x="310" y="55" as="offset" />
          </mxGeometry>
        </mxCell>
        <mxCell id="WLGKky_bHdKj5OCefhs1-84" value="&lt;font style=&quot;font-size: 18px;&quot;&gt;Middleware&lt;/font&gt;" style="shape=umlFrame;whiteSpace=wrap;html=1;pointerEvents=0;width=120;height=30;" parent="1" vertex="1">
          <mxGeometry x="950" y="280" width="330" height="740" as="geometry" />
        </mxCell>
        <mxCell id="WLGKky_bHdKj5OCefhs1-85" value="API Key Authentication" style="shape=module;align=left;spacingLeft=20;align=center;verticalAlign=top;whiteSpace=wrap;html=1;" parent="1" vertex="1">
          <mxGeometry x="1000" y="510" width="140" height="80" as="geometry" />
        </mxCell>
        <mxCell id="WLGKky_bHdKj5OCefhs1-59" style="edgeStyle=orthogonalEdgeStyle;rounded=0;orthogonalLoop=1;jettySize=auto;html=1;entryX=1;entryY=0.5;entryDx=0;entryDy=0;" parent="1" source="WLGKky_bHdKj5OCefhs1-24" target="WLGKky_bHdKj5OCefhs1-57" edge="1">
          <mxGeometry relative="1" as="geometry">
            <Array as="points">
              <mxPoint x="1150" y="610" />
              <mxPoint x="1150" y="545" />
            </Array>
          </mxGeometry>
        </mxCell>
        <mxCell id="WLGKky_bHdKj5OCefhs1-65" value="CA request Dataset&amp;nbsp;&lt;div&gt;from the eFTI Gate&lt;/div&gt;" style="edgeLabel;html=1;align=center;verticalAlign=middle;resizable=0;points=[];" parent="WLGKky_bHdKj5OCefhs1-59" vertex="1" connectable="0">
          <mxGeometry x="-0.5139" y="-1" relative="1" as="geometry">
            <mxPoint as="offset" />
          </mxGeometry>
        </mxCell>
        <mxCell id="WLGKky_bHdKj5OCefhs1-89" value="API Key Authentication" style="shape=module;align=left;spacingLeft=20;align=center;verticalAlign=top;whiteSpace=wrap;html=1;" parent="1" vertex="1">
          <mxGeometry x="980" y="600" width="140" height="80" as="geometry" />
        </mxCell>
        <mxCell id="WLGKky_bHdKj5OCefhs1-62" style="edgeStyle=orthogonalEdgeStyle;rounded=0;orthogonalLoop=1;jettySize=auto;html=1;entryX=1;entryY=0.5;entryDx=0;entryDy=0;" parent="1" source="WLGKky_bHdKj5OCefhs1-25" target="WLGKky_bHdKj5OCefhs1-61" edge="1">
          <mxGeometry relative="1" as="geometry">
            <Array as="points">
              <mxPoint x="1130" y="670" />
              <mxPoint x="1130" y="635" />
            </Array>
          </mxGeometry>
        </mxCell>
        <mxCell id="WLGKky_bHdKj5OCefhs1-66" value="CA requests Identifiers&lt;div&gt;from the eFTI Gate&lt;/div&gt;" style="edgeLabel;html=1;align=center;verticalAlign=middle;resizable=0;points=[];" parent="WLGKky_bHdKj5OCefhs1-62" vertex="1" connectable="0">
          <mxGeometry x="-0.4421" y="3" relative="1" as="geometry">
            <mxPoint x="22" y="-3" as="offset" />
          </mxGeometry>
        </mxCell>
        <mxCell id="WLGKky_bHdKj5OCefhs1-90" value="API Key Authentication" style="shape=module;align=left;spacingLeft=20;align=center;verticalAlign=top;whiteSpace=wrap;html=1;" parent="1" vertex="1">
          <mxGeometry x="1120" y="700" width="140" height="80" as="geometry" />
        </mxCell>
        <mxCell id="WLGKky_bHdKj5OCefhs1-68" style="edgeStyle=orthogonalEdgeStyle;rounded=0;orthogonalLoop=1;jettySize=auto;html=1;entryX=1;entryY=0.5;entryDx=0;entryDy=0;" parent="1" source="WLGKky_bHdKj5OCefhs1-26" target="WLGKky_bHdKj5OCefhs1-67" edge="1">
          <mxGeometry relative="1" as="geometry">
            <Array as="points">
              <mxPoint x="1110" y="735" />
              <mxPoint x="1110" y="725" />
            </Array>
          </mxGeometry>
        </mxCell>
        <mxCell id="WLGKky_bHdKj5OCefhs1-70" value="CA can follow-up&lt;div&gt;a previous dataset query&lt;/div&gt;" style="edgeLabel;html=1;align=center;verticalAlign=middle;resizable=0;points=[];" parent="WLGKky_bHdKj5OCefhs1-68" vertex="1" connectable="0">
          <mxGeometry x="-0.3781" y="3" relative="1" as="geometry">
            <mxPoint x="37" y="-3" as="offset" />
          </mxGeometry>
        </mxCell>
        <mxCell id="WLGKky_bHdKj5OCefhs1-91" value="API Key Authentication" style="shape=module;align=left;spacingLeft=20;align=center;verticalAlign=top;whiteSpace=wrap;html=1;" parent="1" vertex="1">
          <mxGeometry x="1080" y="900" width="140" height="80" as="geometry" />
        </mxCell>
        <mxCell id="WLGKky_bHdKj5OCefhs1-82" style="edgeStyle=orthogonalEdgeStyle;rounded=0;orthogonalLoop=1;jettySize=auto;html=1;exitX=0;exitY=0.5;exitDx=0;exitDy=0;entryX=1;entryY=0.5;entryDx=0;entryDy=0;" parent="1" source="WLGKky_bHdKj5OCefhs1-73" target="WLGKky_bHdKj5OCefhs1-74" edge="1">
          <mxGeometry relative="1" as="geometry" />
        </mxCell>
        <mxCell id="WLGKky_bHdKj5OCefhs1-83" value="Gate administator&lt;span style=&quot;background-color: light-dark(#ffffff, var(--ge-dark-color, #121212)); color: light-dark(rgb(0, 0, 0), rgb(255, 255, 255));&quot;&gt;&amp;nbsp;manages&lt;/span&gt;&lt;div&gt;&lt;span style=&quot;background-color: light-dark(#ffffff, var(--ge-dark-color, #121212)); color: light-dark(rgb(0, 0, 0), rgb(255, 255, 255));&quot;&gt;&amp;nbsp;connected clients&amp;nbsp;&lt;/span&gt;&lt;/div&gt;" style="edgeLabel;html=1;align=center;verticalAlign=middle;resizable=0;points=[];" parent="WLGKky_bHdKj5OCefhs1-82" vertex="1" connectable="0">
          <mxGeometry x="-0.4412" y="-3" relative="1" as="geometry">
            <mxPoint x="30" y="-2" as="offset" />
          </mxGeometry>
        </mxCell>
        <mxCell id="WLGKky_bHdKj5OCefhs1-92" value="&lt;font style=&quot;font-size: 38px;&quot;&gt;eFTI Mock Platform&lt;/font&gt;" style="verticalAlign=top;align=left;spacingTop=8;spacingLeft=2;spacingRight=12;shape=cube;size=10;direction=south;fontStyle=4;html=1;whiteSpace=wrap;strokeWidth=5;fillColor=#bac8d3;strokeColor=#23445d;" parent="1" vertex="1">
          <mxGeometry x="2160" y="90" width="780" height="800" as="geometry" />
        </mxCell>
        <mxCell id="WLGKky_bHdKj5OCefhs1-94" value="" style="outlineConnect=0;dashed=0;verticalLabelPosition=bottom;verticalAlign=top;align=center;html=1;shape=mxgraph.aws3.router;fillColor=#F58536;gradientColor=none;" parent="1" vertex="1">
          <mxGeometry x="240" y="-90" width="172.5" height="180" as="geometry" />
        </mxCell>
        <mxCell id="WLGKky_bHdKj5OCefhs1-95" value="" style="verticalLabelPosition=bottom;aspect=fixed;html=1;shape=mxgraph.salesforce.platform2;" parent="1" vertex="1">
          <mxGeometry x="2170" y="150" width="170" height="170" as="geometry" />
        </mxCell>
        <mxCell id="WLGKky_bHdKj5OCefhs1-96" value="&lt;font style=&quot;font-size: 21px;&quot;&gt;Exposed APIs&lt;/font&gt;" style="shape=umlFrame;whiteSpace=wrap;html=1;pointerEvents=0;width=160;height=40;" parent="1" vertex="1">
          <mxGeometry x="2350" y="300" width="250" height="530" as="geometry" />
        </mxCell>
        <mxCell id="WLGKky_bHdKj5OCefhs1-97" value="Gate API&lt;span style=&quot;color: rgba(0, 0, 0, 0); font-family: monospace; font-size: 0px; text-align: start; text-wrap-mode: nowrap;&quot;&gt;3CmxGraphModel%3E%3Croot%3E%3CmxCell%20id%3D%220%22%2F%3E%3CmxCell%20id%3D%221%22%20parent%3D%220%22%2F%3E%3CmxCell%20id%3D%222%22%20value%3D%22API%20Key%20Authentication%22%20style%3D%22shape%3Dmodule%3Balign%3Dleft%3BspacingLeft%3D20%3Balign%3Dcenter%3BverticalAlign%3Dtop%3BwhiteSpace%3Dwrap%3Bhtml%3D1%3B%22%20vertex%3D%221%22%20parent%3D%221%22%3E%3CmxGeometry%20x%3D%22610%22%20y%3D%22270%22%20width%3D%22320%22%20height%3D%2290%22%20as%3D%22geometry%22%2F%3E%3C%2FmxCell%3E%3C%2Froot%3E%3C%2FmxGraphModel%3E&lt;/span&gt;" style="shape=module;align=left;spacingLeft=20;align=center;verticalAlign=top;whiteSpace=wrap;html=1;" parent="1" vertex="1">
          <mxGeometry x="2370" y="350" width="180" height="170" as="geometry" />
        </mxCell>
        <mxCell id="WLGKky_bHdKj5OCefhs1-98" value="«interface»&lt;br&gt;&lt;b&gt;Dataset&lt;/b&gt;" style="html=1;whiteSpace=wrap;" parent="1" vertex="1">
          <mxGeometry x="2405" y="380" width="110" height="50" as="geometry" />
        </mxCell>
        <mxCell id="WLGKky_bHdKj5OCefhs1-100" value="«interface»&lt;br&gt;&lt;b&gt;Follow-Up&lt;/b&gt;" style="html=1;whiteSpace=wrap;" parent="1" vertex="1">
          <mxGeometry x="2405" y="450" width="110" height="50" as="geometry" />
        </mxCell>
        <mxCell id="WLGKky_bHdKj5OCefhs1-101" style="edgeStyle=orthogonalEdgeStyle;rounded=0;orthogonalLoop=1;jettySize=auto;html=1;entryX=0;entryY=0.5;entryDx=0;entryDy=0;exitX=0;exitY=0;exitDx=0;exitDy=35;exitPerimeter=0;" parent="1" source="WLGKky_bHdKj5OCefhs1-77" target="WLGKky_bHdKj5OCefhs1-98" edge="1">
          <mxGeometry relative="1" as="geometry">
            <Array as="points">
              <mxPoint x="350" y="525" />
              <mxPoint x="350" y="1100" />
              <mxPoint x="2120" y="1100" />
              <mxPoint x="2120" y="405" />
            </Array>
          </mxGeometry>
        </mxCell>
        <mxCell id="WLGKky_bHdKj5OCefhs1-102" value="eFTI Gate requests platform for subsets" style="edgeLabel;html=1;align=center;verticalAlign=middle;resizable=0;points=[];" parent="WLGKky_bHdKj5OCefhs1-101" vertex="1" connectable="0">
          <mxGeometry x="-0.5849" relative="1" as="geometry">
            <mxPoint x="28" as="offset" />
          </mxGeometry>
        </mxCell>
        <mxCell id="WLGKky_bHdKj5OCefhs1-103" style="edgeStyle=orthogonalEdgeStyle;rounded=0;orthogonalLoop=1;jettySize=auto;html=1;exitX=0;exitY=0;exitDx=0;exitDy=15;exitPerimeter=0;entryX=0;entryY=0.5;entryDx=0;entryDy=0;" parent="1" source="WLGKky_bHdKj5OCefhs1-77" target="WLGKky_bHdKj5OCefhs1-100" edge="1">
          <mxGeometry relative="1" as="geometry">
            <Array as="points">
              <mxPoint x="330" y="505" />
              <mxPoint x="330" y="1160" />
              <mxPoint x="2140" y="1160" />
              <mxPoint x="2140" y="475" />
            </Array>
          </mxGeometry>
        </mxCell>
        <mxCell id="WLGKky_bHdKj5OCefhs1-104" value="eFTI Gate forwards follow&amp;nbsp;&lt;div&gt;up communication to platform&lt;/div&gt;" style="edgeLabel;html=1;align=center;verticalAlign=middle;resizable=0;points=[];" parent="WLGKky_bHdKj5OCefhs1-103" vertex="1" connectable="0">
          <mxGeometry x="-0.5464" relative="1" as="geometry">
            <mxPoint x="29" as="offset" />
          </mxGeometry>
        </mxCell>
        <mxCell id="WLGKky_bHdKj5OCefhs1-106" value="Dataset API" style="shape=module;align=left;spacingLeft=20;align=center;verticalAlign=top;whiteSpace=wrap;html=1;" parent="1" vertex="1">
          <mxGeometry x="2370" y="575" width="180" height="115" as="geometry" />
        </mxCell>
        <mxCell id="WLGKky_bHdKj5OCefhs1-107" value="«interface»&lt;br&gt;&lt;b&gt;Upload dataset&lt;/b&gt;" style="html=1;whiteSpace=wrap;" parent="1" vertex="1">
          <mxGeometry x="2415" y="610" width="110" height="50" as="geometry" />
        </mxCell>
        <mxCell id="WLGKky_bHdKj5OCefhs1-109" value="&lt;font style=&quot;font-size: 20px;&quot;&gt;Private APIs&lt;/font&gt;" style="shape=umlFrame;whiteSpace=wrap;html=1;pointerEvents=0;width=140;height=40;" parent="1" vertex="1">
          <mxGeometry x="2650" y="300" width="220" height="530" as="geometry" />
        </mxCell>
        <mxCell id="WLGKky_bHdKj5OCefhs1-112" style="edgeStyle=orthogonalEdgeStyle;rounded=0;orthogonalLoop=1;jettySize=auto;html=1;entryX=1;entryY=0.5;entryDx=0;entryDy=0;" parent="1" source="WLGKky_bHdKj5OCefhs1-110" target="WLGKky_bHdKj5OCefhs1-46" edge="1">
          <mxGeometry relative="1" as="geometry">
            <Array as="points">
              <mxPoint x="2745" y="860" />
              <mxPoint x="2100" y="860" />
              <mxPoint x="2100" y="355" />
            </Array>
          </mxGeometry>
        </mxCell>
        <mxCell id="WLGKky_bHdKj5OCefhs1-113" value="Extract identifiers and register them&lt;div&gt;in eFTI gate&lt;/div&gt;" style="edgeLabel;html=1;align=center;verticalAlign=middle;resizable=0;points=[];" parent="WLGKky_bHdKj5OCefhs1-112" vertex="1" connectable="0">
          <mxGeometry x="-0.6722" y="1" relative="1" as="geometry">
            <mxPoint x="-1" as="offset" />
          </mxGeometry>
        </mxCell>
        <mxCell id="WLGKky_bHdKj5OCefhs1-110" value="Identifiers extract service" style="shape=module;align=left;spacingLeft=20;align=center;verticalAlign=top;whiteSpace=wrap;html=1;" parent="1" vertex="1">
          <mxGeometry x="2670" y="577.5" width="150" height="115" as="geometry" />
        </mxCell>
        <mxCell id="WLGKky_bHdKj5OCefhs1-111" style="edgeStyle=orthogonalEdgeStyle;rounded=0;orthogonalLoop=1;jettySize=auto;html=1;entryX=0;entryY=0.5;entryDx=10;entryDy=0;entryPerimeter=0;" parent="1" source="WLGKky_bHdKj5OCefhs1-107" target="WLGKky_bHdKj5OCefhs1-110" edge="1">
          <mxGeometry relative="1" as="geometry" />
        </mxCell>
        <mxCell id="3odMCYDfKdZ8ykpnIXUM-6" style="edgeStyle=orthogonalEdgeStyle;rounded=0;orthogonalLoop=1;jettySize=auto;html=1;exitX=0;exitY=0;exitDx=0;exitDy=385;exitPerimeter=0;strokeWidth=7;" edge="1" parent="1" source="WLGKky_bHdKj5OCefhs1-114" target="WLGKky_bHdKj5OCefhs1-249">
          <mxGeometry relative="1" as="geometry">
            <Array as="points">
              <mxPoint x="-425" y="-260" />
              <mxPoint x="3650" y="-260" />
            </Array>
          </mxGeometry>
        </mxCell>
        <mxCell id="WLGKky_bHdKj5OCefhs1-114" value="&lt;font style=&quot;font-size: 40px;&quot;&gt;Harmony eDelivery Access&lt;/font&gt;" style="verticalAlign=top;align=left;spacingTop=8;spacingLeft=2;spacingRight=12;shape=cube;size=10;direction=south;fontStyle=4;html=1;whiteSpace=wrap;strokeWidth=5;fillColor=#fff2cc;strokeColor=#d6b656;gradientColor=#ffd966;" parent="1" vertex="1">
          <mxGeometry x="-820" y="100" width="780" height="1120" as="geometry" />
        </mxCell>
        <mxCell id="WLGKky_bHdKj5OCefhs1-116" value="" style="shape=image;verticalLabelPosition=bottom;labelBackgroundColor=default;verticalAlign=top;aspect=fixed;imageAspect=0;image=data:image/png,iVBORw0KGgoAAAANSUhEUgAAAg8AAACTCAYAAAAJHvqzAAAACXBIWXMAAAsTAAALEwEAmpwYAAAgAElEQVR4nO2dT1LbSrTGP716Yz/uBoBsgJCyxmA2EMgGCEw8DGEDocgGSDLUBIcNhLCBOIztCmED4XoDl/IG9AZ9FLdlyeqWWn9sfb8qKsTIrZbU6j59vtOnvTAMQQghhBBiyv/UXYFGM/YuMfZC+bmsuzqEEEJIE/DoeUhh7G0D+BP79AW64VPldSGEEEIaBD0P6RwZfkYIIYS0ChoP6bxJ+Oy08loQQgghDYOyRRJjbwPAfyl//Qfd8LnK6hBCCCFNgp6HZJbJE5QuCCGEtBoaD8kkSRYmfyOEEELWHsoWcZZLFhGULgghhLQWeh4WMZElKF0QQghpLTQeFjGRJShdEEIIaS2ULXTMJIsISheEEEJaCT0P8/QsjqV0QQghpJXQeJjHRo44KK0WhBBCSIOh8TCPjTeBngdCCCGthMZDxNg7AtCx+EZHvkMIIYS0ChoPM/KsoOCqC0IIIa2DxsOMPF4Eeh4IIYS0DhoPQB7JIoLSBSGEkNZB40FRRH6gdEEIIaRV0HhQ9Ap8l54HQgghrYLGw9jbBbBZoIQOxl7PUW0IIYSQxkPjATh1UAalC0IIIa2BxoMb2YHSBSGEkNbQbuOhuGQRsSllEUIIIWtPu40HN5JFGWURQgghjaXtxoNLuYHSBSGEkFbQXuNh7G3DjWQRQemCEEJIK2iv8VCOp4DSBSGEkLWnzcZDGQN9r4QyCSGEkEbhhWFYdx2qR0kWf0oq/QW64VNJZRNCCCG101bPQ5nBjQycJIQQsta01XgoMzaBcQ+EEELWmvbJFuVKFhGULirE84O5RhyO+l5ddUkiXr8U7sNRf7/EOvwEsJd1XNPuHSGkmbTR81CFrEDpghBCyNrSRuPhoIJzULoghBCytrTLeBh7GwBeV3CmHZFHCCGEkLWjXcZDtXJCr8JzEUIIIZXRNuPhzZqeixBCCKmM9hgP1UkWEa/lnIQQQsha0R7joZ4VEFx1QQghZO1ok/FQh4xA6YIQQsja0SbjoUrJYnZOSheEEELWjHYYD2OvTvmA0gUhhJC1oh3GQ73yAaULQggha0VbjIc6Z/+9Gs9NCCGEOGf9jQclWXRqrEGnZtmEEEIIccr6Gw/NkA2aUAdCCCHECW0wHpow629CHQghhBAn/G/dFSiVsddDvZJFhJIuuuFt3RUhpC48P9gGsA3gKRz1n2qtjCGeH+wCQDjqP6zLeT0/2ACwC+AhHPWfXZdfBK2NNK5uy4jqHY76w3prUh3razyo/ArndVdD4xJjb4huuDIvBCG2SCe6C+AVVLDwNoDNhOOiXycAngAMAfwKR/3CBrY2AC3jOWlg9vygB+AUqu6b2ufRr/cAHgD80OuqDchLSRpc5LtHUPJmD9qEJ3beIYBrG8NLK/sAsWvSyp9I2T/CUX9gWnYRYvXaBrCXcAwATKHu98I9d1CHXtYxacaA5wf680pqJ4+YPa9MA9CwzUaUYliZtuGoDjPjQc3S14UNAJcAduquiMYOgH8x9t4CWB8DohsO664CqReZJZ9CDQYLhkIGm/KzJ2VNAdwCuCjgnTgF8CHjmHsA+9F/pPP+ioRBLMae/Lzz/OBjOOpfyOe7AH4Y1M2b+48fXAJ4j2wPaXTeD54f3AM4WzYoyUBwblj2JoBjAMdSn4uyjAjNODs2/EoH8/d8CmAA4MqB9yrP8zqBGluy2vmO/Lzz/OAR6nkNlxy/bVgfALgB8NbwWBsuAbwzOG4KYEsZD2PvK8wf5jrzj7FnQK2g+GZZfifHd5rN2LtDNzysuxqkWmSwPUc+g2EZHcwGsi9QA1mpxrbMIr/CXuK8LnDOXTlnngnOHoBfnh+ch6P+p5SyvyPfc9kEcO35wSmAQ1f33sI4y6IDNcC9q6p9AH+Nsa/Il6l4B8APzw/uALxNqm846g89P5jA7Jkde35QxLhO48TwuNtw1H+OAiZpOAB3lpICV1Ao6kj7TWpEZo9/oDpxl4ZDnHcAfkf6fxnITPIb7A2H+7ydt1zPTxT3jF55fvA1VvaJlF30uewB+CmDZiHEm/EHxQ2HOO8A/CvGX2nIPfiJ4n3dayy/pxcpnydxWrAuc8g9NH0HroB2rLYwxdYjwBUUpK08QLkuq2ATqsN1bkBImXm9B7m+pxkOrgK5I6lBvx5XZe+ggAHh+cGG5wc/kS0hFaED4JvnB5/LKFwzHFxJ4Kn3VKSiiWE5710Ydhqmk+HHSC6LYh5OAXxGM1Ym1IV5IE79iaeawhTAWd2VWBO2o0GgrPJdFRSO+s+eH9yiOo9lB6rD3Xe4+mADyrWfh2mBmIA88kgWHzw/+IH817OMHSgt3Oo9L2HQzeKd5wcb4ajvOhYgr7S0jB0pN0nuvYCZYdqBkg1tvBWJaMGrJlxFvyjjoRsOMPYeUM6NWgUoWdjzCOAtumGlS9jWmE2UO0NzzTWqlTs7UP3TS0flFennikT8l9W/mgbb5eGd5wfGAYo1GA4Rx54fwLEBUZYs+9rzg148iDIc9QcyiTCRnU7gwHiAMhxMDNoomBmALlt0wwd0w5cAvjiozKpBycKOL+iGL2k4tBfp9ExdrK7YEU2/bq6yD1k7bLxidU5Cjz0/eF/TuW35mvK5afvadPQ+mE6Gb/Vgz8WYh254BrX2tipNswmULVn8g27oGf0026sxBXAgbYQQ007uXn5u5Oce+Q2PMqUdEx4dSierhNGESQbuuoOor8oMsnXIZko9BzAffwu9D7IKxvR5zb3vyQGTau3+FoC7AvVaFcqWLNZFErkDsMW8DkRjkPL5HZQe+yoc9b1w1N+Xn7fysx+O+ltQiaRuLM+Z1uG6YApVnwMA/0jdPah6nsrfXLiJdSZS9ovY+c7hxrNzA9Wn6NdzAHsPcycrqZIMRHkGs3uoexC1F72eee9D2qy+KFOoe/dKq+cLqHt8n6O8hVUTMrtfWIKbwmbB1Sam310wmtMzTKoB7xBj7z1Ug1jXAMGyJYtVl0SmAC7QDU0bM2kJEjh5AxX7cAfV1udcmxnffwDw1vODK9itQHgDteLDJcvW4EcZDgeOz5mYpyE6n+cHA6hA9jyxJROo6xkmlD8EMPT84Bp29/0AKmtiGrbjxNLkSVE9AXwS97xNUP+O5wcnjpNdJbYRiQV5AnArBtZ3mNezl/L5FcwSfAHKwMobh2O65HMhiDN7qaYaNPahHvQ6YiNZ9GBvRK3yKo5HAPs0HMgSrqBmzYfhqD/Ik7BHBst9mLtqXXseTqX+VWZ+PU0yHHTCUf9Zgv9s+95HAC+z9lnQ7rspqfddvA42Rs5NOOpn1jFCjIAt2N0LlxLXjUkbkeuxuaeJsSGW3oc9k1TbceSZmcamDOIfmOV5WN9gykdKFqkwKJJkEo76Dy4y3clAZtpZulzffl7Vfg4FzmkjlUxhkRlS7rupdLTsvtvsI3STZ0WEXJPNRLaoSz/Cqr5yTz+aHr8kX8MVzA3qPPs4mX7nJqk92SWJWr9gSttEL22QLBgUSeoid7rnnNxlzf5L4N72nJabQZ3lMOZcpMw37bsmKJAbRgYxG8Oj6IQsb31tVuQkenTkWk2f/WvxJNhg+swS30v7XTW74RBjbwv583zbUPZeEzaSwi7sU76ummRxB5W7oUr3LVFEuweWxS4qal/iQt0F8A/mNd1nqGv8D2pnwKH+vXDUf9J2JayCOpZcDnN+7x5m6Z2fcpRdqN1JAKtp31h4L4pw1H/QYm2yKDohe8opxT3LhlhFl6xewFwOuoShYSXvqMkzm6RJS/m25K4mmLJsl/8juuGTxfG2ucRXSbJgUGT9PISjvo1WaoWkCXa9t4Befg+znTWX9Qd/JxxiKFgHWraU0u6NA6OtZ3jcxKFEZDqodjw/2K1pee0TChoP8mxMDSWbDbNMx7NUA7vY3hblBlOW7fKnZKFgUCTJjecHu2KY/IDq4GwnEq+h3sV/S07Pveo0OfboheFxRTJzziEDpOm4s+3qvJa4emZlbJhlOt4M0v5QfGOs8oIpy3b5ly1ZDC3Lr0OyYFAkyY0kBPoFNx6NDlYrPTeZYbr6xXUK7aHhca8cn7dSxFAyDWrN3DBLlr2ajDeJgZIR7nbVdBtMueqSRdnlF4VBkaQQshV0G9M0k/y4ll7aJHOZvmvRhlnLMB0vl3rn3W7J7S4z5apLFmWXXwRmiiSFkO2Pq9wUi6wBpjkdLPjluLzGIjEbphksT9L+IF4Jk4UOqYGSEW6NB0AFU3bDQyjrJ68XYtUli7LLz8MUwDm64SFXU5C8SGDku7rrQVaPHEsJs3BdXtMxjX1YtmGW6UQ109Ph3niIyB9M2TTJommSSB4eAbxkUCRxQJ49A6JNsT7Kz518ti75YogZ247L+8dxeY1GPAGm3oe04GPTxFCDrAPyLdU0RQXivcTY+wzz2UrZksWw5PKbJll8RDd0vZkPaSEymzH1kk2hMkZeLQu6ktnoEZQRXdc2zqQYppO9XeTPc5FWngn/OTxn3VzALPB00/ODIz3BmEU66qWBkhHlGg8R3fAMY+8bzDYMKXuviT/yPRM2YN+hNUWymEAlfBqWVD5pH6ZeuCmAfZO19RJJ/glq86NtAH9y147UxQPMdPQDmKcgN6FneNzarCYLR/2hRfKp+IZZuTfBSqI82SKOWTBl2XtNAErL+WH4Y+sFaYpkcQclUwxLKp+0k57hcWd5kvK42COD1IJp4GKeFMqJWCw3LCNQs25MV17EN8w6MfhOZqBkRHXGA2ASTNk0l78tddd/CuCUQZHENRKlbdJZT2vYaIrUy9DiWFeJwEzLWbvdoOX9mhgefg5YpRAfmNajWuMhQgXuvcTig22Kyz8vddY/CoocOCyTkAhTfXltXMTEDNHHTZfnH+fZPlpHMpGa9p1Vb7ZWFaZxbJG3x6lkAdRlPABAN3ySzJTR1qVNcfnnxbb+PYfn/iiZIm3OT0gZ5N4uu+igQmrFRuL9LjNha0SusMlEOshznqZj6X24hJlkcWcjHdZnPESolQAHsM9W1zTJYmh5vAvjZwKVKZKrKUjZmHoUdvLo2mI4fLf9HmkGloNZB8BPzw+s+nDxONh4EoxWDawwpv2+6Z4zVl6a+o0HQAVT2rjbmylZmN/4sbeN4svSGBRJKsOyE7bKBSGDwg/UvyU9KYbNJKYD4JvnBz+zPE6eH5x4fvAv7DwOU8v6rCK3cJcrZaIv6zShmqWa7mmaZDGx3FyqiNdkCuCMsQ2kBu5gtiRvz/OD31CrLoZJB0gA5hGUS7VpEwGSg3DUH3h+cAq7jdL2APzw/GAC5d3S+9EeVKxNHqPy07qv3glH/WfPDz7BzYZyA9svrKrx0DTJwnar2bzGzyOAQ8Y2kJr4BjPjAVCetR+eH0wxGxSeoWIiduFmJ07SPN4C+A37AX9Tfkzb1zIew1F/3b0OEVcA3qO41846sLQZsoUN7ZUsGBRJ6iaPm7QDZSi8g5ohvQMNh7VFZvtva6zCFGpbhFYgcmLRxFtWgZIRq2c85EsMVSZlSxYMiiSNwFFHRdYc0c7rkJajzKbrHCSZxBWKxT7kWs66isZDmyQLBkWSRiHuYNPNefKwdkl92oisvqjSgDBOib5uiLFkOw5FWAdKRqyW8eBmlYJrypMsmCmSNJNDlDPI3wA4K6FcUgNiQLxC+bunPgLYaqPhoJHXMz3Ie8LVMh7svQ5TdEPP+MfeUi5TsjDN2EZIpchMZx9uPRDn4ahfp1ZOSkAG9C0ow9A1UwAfw1H/ZQulijkkZiHPPc6dgXPVjIcDy+Nt3TG28RS25dvWn5BGEo76z+Govw+VIbbIzPIewItw1GcsxZoibeUtVP/nyuC8AfCyRasqTLC9F7kCJSNWbamm7TIe85SpY28jR/km+6rnLd/FkiXSDEw6zLJdrqWUH476F54fXEFtwHMCs5VQUyjD+zohD8Qzsu9X1rX8MSgjOpcrTOoN5N9yvOxrKr2NyrPelwyk51CeWJuVc/dQffrAkaeh7GuutB2Go/6T5wc3UBklTSi074cXhmGR71fH2DuCXf70Kbrh/1mUfwK7m1l2+QDwBt0wbyBMa/D8YK4Rh6O+V1dd2o7sWbAL4AVmOR2e5Oc/AA9ruEUyyYkYEtuYeWWj/0d5Qf6T3x/aLk2YICm/TcbJaTjqm49fCayS56FsSaFp5UffofFAVgbRuNscuEYsELf5E+z3BiLJmI4zg6InWqWYB9tgSRsvBdA8SQRo3rJUQgghDURL+W6C7UaUC6yG8aAkC9v0m0PL8m2YWsoJeY2ATo66EUIIaR+m4+S9i30/VsN4sHf531nmR2iiZOHiu4QQQtrBueFxhQIlI1bFeChbsiiv/PySRQQ9D4QQQlKRbc1NEhBOJXlXYZpvPOSTLMw9A/blVyVZRFC6IIQQsoxLw+MGrk7YfOOh3ZKFyzIIIYSsCJ4f9Dw/ODE47gjmO9UWDpSMWAXjYXUlC0XP8vgk6HkghJB28RnAtecH32UlxQKSV+WrYXlOAiUjmp3nYez10CzJArBfxWFbfhIdjL1dy300CCGErCCeH7zHLIbhNYB/PT8YYDZ53YZKrGWaTRJw6HUAmm48NE+yKLv8ZZyCOw4SQshaI16GeAxDB8A7+clD7q2302i6bLHqkoVLuYHSBSGErD+f4cZjreN8x9rmGg9jbxd2m6YAdpJFD82TRJaxKfeEEELIGiJLLm2kCBPuythPprnGg3LT2/C4xpJFhO09IYQQsjp8dlzeBCV4HYBmGw+2bnrbrFmrJFmUWSYhhJCakWWZJomeTJkCOCxrN9JmGg/lSxZll+9asoigdEEIIevJLYB7R2VNAezLLrel0EzjIZ9k8VRi+U2QLCIoXRBCyJoRjvrP4ai/D7VHxbRAUfcAtso0HIDmGg+ULOopmxBCSI2Eo/4nAFsAPkLFLJjyCOBNOOrvlyVV6HhhGJZ9DjuUW/6X5bdeGHse7Mq/B3CBbjg0rolaxfHD+Ph8mF9vC/D8YK4Rh6O+V1ddyCKx53MvsytCiAGyAuMAKlvxBlRcxBTAA4BnqPFmWLanIU4Tk0TZuvzLkiw+ohteWNYFqGYfiiMAnyo4DyGEkBqRZZbDemuxSBONh7oliwmAwwKpoKuQFU5B46F1eH7w0/DQIYD/UMNshKw+nh9cQtuTh54ikkSzjIextw37pSouV1ncADizDI60Kd8VOxh725QuWofpznl/j/P8YAK1De9VFTpoXmSDnx6AW5eb95BcvIe2WszzgyPXqY3J6tO0gEnbWbutZJEmKUwBnKIbvs1tOCiqXAnBwEliwiaAD1Ab6zSyzchM9xfUxj1/mlrPNiC5BuLLzLnCiyzQNOPBtpEOLY9P6pQeAbxENxxYlmVaflnwhW43U6iA3qSfJDoAvnl+YLp9b5W8j/3/vJZaECC5X3nt+cF21RUhzaY5skU+ycI83iG5/C/ohm52qlTlVyFZRFC6aDcPy7Romb2/wWKe/GPPDxCO+qWkrCWrixgIadLYKYA8AeRkTWmS58F21j6xDGrUy58COHBmOACQQfwAxZJ72EL3LkkkHPVvxUB4BeVd0zn2/CA+26+T+KB0VUstSNzjo/dlJxXWg6wATTIebN3wtgE8Ufl3ALascjeYosrcgrsUo1lQuiBLkdUW+1g0IC6b4oqWpDivoNrzCwbn1caJ9vsE8yu6NiXfACEAmmI8VCdZnKMbHhYMilxON3xGN4xSjJbNDsbeRgXnISuMrLLYx3y2ug6Ay3pqtEg46j+Eo/6AKy3qISFQ8gqLfSwnK+QvzTAeypcstgG8QjesLjeCOleSy9g1lC5IJmJAxOMcjj0/oPFJgMWVaJEhd6d9xvZC/tKUgEnbrIx2bs0yJAqz8z5g7O1D7dEeD1xzxRuodfykwUinewQVF7MtHz9DpZj9VkUyp3DUH3p+cI/5oLgjZLQfCb58BS1xEFS9f7iQGEQ+2dbLDkf954TPn0w9E/HvSpa++DHRM3kFQN+tdgjgV9a1pZ1DclacamU+QFIIx87zbPPcpVx98H5wkbtDruO19tGdVu632N9OkCNBndT9DdT1R9fwBHVfbk2vQ+oavUd6Ob9gkSPEYX2S2pD1e63Vp6d9/IDZdTUuR0v9xoNyu5smv4mwzSpZH0oieYux9w3AV7jfqvs1xt5GqVIMyY10LpcA3qUc8hrABxnU31bgtr/G/Pt2gBTjQYyGz0heRbQH4J3nB1MAFxK3kJdTqFwUep2GUAOzvk/MPZT8YsJPzOo9gYpF+ovklphLhqSxJ8dMoJ7J0LDenucHn7H4rPegBpQhYvveeH7wj8XA8B3zz+Ifw+9lEZcj/vav4ag/kGvqaMcaP2sZFD8juY/fg5pUXXt+cAPgLO1eiNHwNaOcKynnIu09kriNy4xyPnt+8Ckc9ZeuLpH3I61P19/ri7Q2JP3D9yX1QVQfNCzRWxNki7Ili2bQDW8BvEQ5MgaliwYiHedvpBsOOnsAfleQIGkY+/9u0kGSD+Ibspcfd6A6bef5I6TD1YOP90yC9kS/1+t9of1tQ9J8f0C2Ib8J4IeUl0mK4RBxLR3/Texzo9goaRf6Nd04HEhOtN8nCR6Xgfb7jrTrTOS+/YLZ5PAYKpHZQtlSzm+Lcn4nPTP57IdBOR2ogf93mkwjZX1Ddhvag2pDC/FFUvZP0/oA+Gl676ugCcZDuZJFk+iGT+iGL6G2WnVJFZtxEQu0GUV88J1A6cg3WFyV0wHwtcwOImFGthCoLINgXGaLklJ9kX/jS5KP5Xuuic/+TAZb/ZhJOOoPtP8nzfImmL+2ONeGBoRuOOjl3Wn3PX49pktm4++4E+9rglGS1L/Gz5X5DOR+JdXxEart32FxItUB8EtfBST1u8biIB2Vc5NSzrVuaC6pz71Wn/j21ztQ7WUOqV+8rEeo5/0R83EiEUmTgs+Yf/+m8t2PUqek+mwnlFML9coWSrJ4nXncPGVvd10+3fACY+8HlMvLRWIpShfNI/5sH6HcskP9IOmIPmP2HnTkuy9LrFs87kGvTw+Ls+ePSHCZSq6IS8w69neeH3xb4ua3JiFO47XnB9sZbmm9Q77S/vYe89c9hXomg1gZG1ADpC5JfPb8YGggKz0COEw7Lhz1n8S1HhlnHc8PTuJ1SKiPbsxNHN7juGSxkGMjHPUfPD94xOy+Hnl+sLFEYtjF4uB6B3WvnxKO1WWNj9ExmlShkyjvJbxHN1oMSvQ3nS9QckK8TfegDIaoTe95fvA+JsvF79l5XLaLyZWPiMltCc/0EcB+Qn10aeS0ScuY6/Y82Lpop+L+X31UEOdLJFupeaB00RCkQ9SN4qhjGMaPDUf9p3DUP8S8O3vH1FVeAnH36mk46i90ssDf/AzxGIQyln/GB7Rl59D/NoW43LXOXP/bftKgHY76z6J364OEydLWiZT5lHGczfUAi++2kyRaCYGS90vqrp+zk1AnnfhAfROO+okGlSzR3YcazE9jcQa6YRqVk3h/tffoFMoA0VcWxcs5D0f9xPgKeUe3MO9Ziz+fnvb7JCneR9rQGZTHaMEowKJcmPaO3Up93iwzMOugbuOhPZJFEionxCHULKdoZkpKF80h7tZ9a6BPn2HeTVnm80zTcXcxPzO/yeqwJJpcl+H2XCefkg5UvzeJSwYT0it/0u77EeYHkLOsSHi5dt24zzLQUwP+YuU+YF4eyUrAFG9Pg6xzGBK/nmVSSLzvTZQuEp7Bo0kqdBnMB1o5C94WqHckq5xBQqCjfp33WcG98gwPtY86sVgk/RlvLmvvkuk1qU3EP3u1rD5N8jhE1Gc85JMsvpVRldpROSGSsgDaYHsvSXn0tN/vTJZrSQcz0D4q83nGddaIXuw4070M4jPheDkuMIl9iHsW9Hod6H+zmMXpA2onIx7FRjaMX0+i90EGJv15uQyU1O/h0nuSEOy5kzJouvKS9OLl5LluMcriya8yEQ+EbrDq7Sc+Dv32/ODEJgeG9An6u/fB84PvTQqIzKLOmIf2ShZJzHJCLFvWt5yxd7TW92h10GMddiW634S5zmeZtp+XhM5JN2zis5+vnh/kOc2LPF9ahiwZvMTs3r5HbBUF5meqn2KDzbZensUzibOL+XuWi4RYjr2U5x03klwFSvYw306fk1YExIgPjudY9AbE21De/shVOQex/196fmCa/Ve/Xv29uYXqp6P714F6LtfyTB9glgPlAvPGzGuomJ4JZrlBjHNXVE2dxkO7JYskVMDjmRZMaZsT4g3acJ9Wi03kD4rdhkpc45J4sJc+EG7H/mabfyWirNnTBWaDZzzQcG4WjcUZpl6nDvJfm0vDKJ5z4xKLWUBPtN/LDJTcxHyAqAknWDQetrXfp668JA4HUNttEBaQBGaHSF5NtYf5HCi3SMk7EY76nzw/eIHFyWLUZ7yGWgb9KGU0qm+vM+aBkkUas5wQthtsMWiSZBFvI2WsXjJ239oghoLuSr4E/nod9CWPgyYl00kj4XrmYjlEZ7d2uWeR4KXJS6fGwN5aEdkhWnYfX1IZ0cEs70SiQS1BlQdYHji/A+BbGblUilCP52Hs2Q5yH1vnjldbfO9j7F3CfEbQoXTROG6Q39Vc2D2uE3P7A4sJgZ4wmwlPsDgLNuUp5/dM0L0PmzLAbiB7kH3A7NoeYRB8l8JTzu+loV8PoDwokRwT9w4MHJ3zJPb/R9jFa+jeknh6/Cft786y6TqU8OIyhilJKyGeoZ7VhTef7rqH+WvvQCV42lqywmPozae67mHRS3Ls+cFTVubLqqhLtjCVLCYADlcyo6QrVE6Ib0h2kSVB6aJ+Jpg9qw2XeQ/yIp1b3AiNd0K/MJuRbsJiL4kKuYVaChh1zueYd5XfpNT5CbNBbbsJzwRIj+WQgUT3zpYVKAkkLyVMxfOD75jVLZ53Q29D8PzgKKe7/U/s/z3kM55+YL7db5Th/hdPxN9xyltM7d5Bxr4gWtD0QMrYhnpWuqwxF4eAYgoAAAWoSURBVOtTJ3XJFiaehxsAL1ttOESoe2CaE4LSRf3ondNri3S+GzYR26ZIcFw8QPAxIbo+3qka52xwvTwzDelg9Q54DympqGPo8kxHEkYZUcG1DbTfIyngJHaME9lW2mLRNNfLtuo2WtKZUje97Rdpi3/LESNxWc6GZeVsL/nb0bJ3VQyUeKK3uUmzvO+p/bXkrjjD/CqXTsay3sqo3nhQksUyd9YUwCm64VtmTNSY5YQ4xfKcEJ0cshBxS9xt/j1rAJKO6DOUe9OJASGd0yXUwKm/c1MkSBIye9TjbI5NNG055k+F+vcVkt+BNK9DFF+gf+fKxKgTIyNVs3ZE/HouMT8gJ+03kZf4YG5tlEhd9PqeaH97wuJ+JJkDtqQ2/9v2E5aGbppo/tIG43tk6Pdux7CcXajnvnCsN9vX4nOGAfGMlOX33mxfC5N09I3MqlyH52GZZPEI5W0YVFSX1UPdm6ycEEwYVSPSgc51fEjZrAeY8wwcQ+mcuQwIMRZ6sub8K4B/kRwvsyxBUjwW4Nrzg69Jxo+c7zNmM1HTPSAKkeB9iMhy58av7ZfnB5dpCafEPX+FmWZdigGRcD2bmNe7By7Oo2nqEUWMkoH2exR7EhG/zx+kDS27z++w2PYvMG+kHEsuhO0l5UT7YOjP6yyhnJ9L2vQl1PvYkWPfa38/way9H8t5evFy5Nj3mH+OT9E5pPwdzPbzWJbnI27wNcIbX0fMQ9qs+Au6Yd4gpnYRyRhjL20Xv161FSIJnEEFT0WdR7RZzyXUy/8ApdX3sBjLsg0VBLjM87bn+UFoWacoJXNq5xOqfQzOMe89OYbqRO8x25Wzh/zLHV1whfkttVO9DhESX3CA+ZUGHwC89/xgCPVMNpAcrNaBei5lddzXSA+MdpLbAYtZNgcFyrrCfN9zCpnhG7ahtPu8I5/fhmofkDPMX3+UCyGrLf59XrK08i3mvSx7UN6yRynnWcrZxaJnXM858QD1HkXH7EDtmvmImYcjMtLi7/U18Hep50Ps2j+IsXGLWVDuLhZXJd43ZSVR3empAfUgDmg45EDdszcontqaOEZe8CQPUbR++wNUhxrvYKJ9MJ4cV+kGwJZhtstPSN75dQ+q3h+QbDicVpV/PyEjp9EAK6mS49tidzB7JtEMWGcK4KDMdfYJ3qqIO4dtwVnCqQR54nUs1iCrDaXd5zf6fZb2FF91opezrC3q5dwiWfLdkbpE5cQNhy96em15f/ZTyonq8w6L7/UXPUh3STs81sqJGw6JcmNd1GE86EbCHYAt2SSK5EEty9zC/IvciGjctiM56aO14FkG3hRqQ5+XJgO8IY9QA8aLcNQ32V/jL7Ic7ADpa9h17gG8qmHjnmhme2+zekI67lOYXVtkdBmXX4Ck99ZVRkndCwa4MUridTvR/2PZhm4AvEwy0KRdvYJZ3pt7qPY+SCln37CcCZTBuDCplfdzC8nGXpwpZCOuhHLeQk3+TO7PHVQ7fDI4thK8MLT1fBJCbNH05gPMLy18wiwN7dLB3SbK2uVgp61hj59/COBblrETq/dz/HjRdbe1jx5MDR2J7bjOe72i1R9gPgPlMwxSAxep95Iy/8Vs1joJR/2tIuVp5W4j1u6KDkTSpufuW1pbkDbwJn48LFMwZ7TFa0flZLZprZwNKKPpAPPJ0Z6gUlQPDMtJa4cPsLiuKqHxQAghDUAGWD2y/mNTEgIREqcJMQ+EEEIWtX1XgZKEOIeeB0IIqRlxf/+nfXQXjvqHddWHkCzoeSCEkPopZettQsqCngdCCKkQ8TJsREFw8v9/MVsm6CxQkpCyqGtjLEIIaSufARx5fjCAiqg/gbvkTYRUAj0PhBBSEbJkMr5jpM4EKt9BI7IIEpIGYx4IIaQ6lm1aNwVwSMOBrAL0PBBCSIVIPodTzPY1ifZXuKDhQFaF/wfvIMQK+keBAQAAAABJRU5ErkJggg==;" parent="1" vertex="1">
          <mxGeometry x="-810" y="160" width="286.8" height="80" as="geometry" />
        </mxCell>
        <mxCell id="WLGKky_bHdKj5OCefhs1-117" value="&lt;font style=&quot;font-size: 22px;&quot;&gt;Exposed APIs&lt;/font&gt;" style="shape=umlFrame;whiteSpace=wrap;html=1;pointerEvents=0;width=180;height=35;" parent="1" vertex="1">
          <mxGeometry x="-320" y="255" width="230" height="540" as="geometry" />
        </mxCell>
        <mxCell id="WLGKky_bHdKj5OCefhs1-118" value="WS plugin&amp;nbsp;&lt;div&gt;[For eFTI gate]&lt;/div&gt;" style="shape=module;align=left;spacingLeft=20;align=center;verticalAlign=top;whiteSpace=wrap;html=1;" parent="1" vertex="1">
          <mxGeometry x="-300" y="300" width="180" height="120" as="geometry" />
        </mxCell>
        <mxCell id="WLGKky_bHdKj5OCefhs1-126" style="edgeStyle=orthogonalEdgeStyle;rounded=0;orthogonalLoop=1;jettySize=auto;html=1;exitX=0;exitY=0.5;exitDx=0;exitDy=0;entryX=1;entryY=0.5;entryDx=0;entryDy=0;" parent="1" source="WLGKky_bHdKj5OCefhs1-119" target="WLGKky_bHdKj5OCefhs1-123" edge="1">
          <mxGeometry relative="1" as="geometry">
            <Array as="points">
              <mxPoint x="-350" y="375" />
              <mxPoint x="-350" y="397" />
            </Array>
          </mxGeometry>
        </mxCell>
        <mxCell id="WLGKky_bHdKj5OCefhs1-119" value="«interface»&lt;br&gt;&lt;b&gt;SOAP message Receiver&lt;/b&gt;" style="html=1;whiteSpace=wrap;" parent="1" vertex="1">
          <mxGeometry x="-250" y="350" width="110" height="50" as="geometry" />
        </mxCell>
        <mxCell id="WLGKky_bHdKj5OCefhs1-120" value="&lt;font style=&quot;font-size: 23px;&quot;&gt;Private APIs&lt;/font&gt;" style="shape=umlFrame;whiteSpace=wrap;html=1;pointerEvents=0;width=170;height=35;" parent="1" vertex="1">
          <mxGeometry x="-600" y="255" width="230" height="540" as="geometry" />
        </mxCell>
        <mxCell id="WLGKky_bHdKj5OCefhs1-121" value="AS4 receiver&amp;nbsp;&lt;div&gt;[Other access point]&lt;/div&gt;" style="shape=module;align=left;spacingLeft=20;align=center;verticalAlign=top;whiteSpace=wrap;html=1;" parent="1" vertex="1">
          <mxGeometry x="-300" y="440" width="180" height="120" as="geometry" />
        </mxCell>
        <mxCell id="WLGKky_bHdKj5OCefhs1-140" style="edgeStyle=orthogonalEdgeStyle;rounded=0;orthogonalLoop=1;jettySize=auto;html=1;exitX=0;exitY=0.5;exitDx=0;exitDy=0;entryX=1;entryY=0.5;entryDx=0;entryDy=0;" parent="1" source="WLGKky_bHdKj5OCefhs1-122" target="WLGKky_bHdKj5OCefhs1-139" edge="1">
          <mxGeometry relative="1" as="geometry">
            <Array as="points">
              <mxPoint x="-340" y="515" />
              <mxPoint x="-340" y="580" />
            </Array>
          </mxGeometry>
        </mxCell>
        <mxCell id="WLGKky_bHdKj5OCefhs1-122" value="«interface»&lt;br&gt;&lt;b&gt;AS4 Receiver&lt;/b&gt;" style="html=1;whiteSpace=wrap;" parent="1" vertex="1">
          <mxGeometry x="-250" y="490" width="110" height="50" as="geometry" />
        </mxCell>
        <mxCell id="WLGKky_bHdKj5OCefhs1-130" style="edgeStyle=orthogonalEdgeStyle;rounded=0;orthogonalLoop=1;jettySize=auto;html=1;exitX=0;exitY=0;exitDx=0;exitDy=35;exitPerimeter=0;entryX=1;entryY=0.5;entryDx=0;entryDy=0;" parent="1" source="WLGKky_bHdKj5OCefhs1-123" target="WLGKky_bHdKj5OCefhs1-122" edge="1">
          <mxGeometry relative="1" as="geometry">
            <Array as="points">
              <mxPoint x="-630" y="340" />
              <mxPoint x="-630" y="840" />
              <mxPoint x="-70" y="840" />
              <mxPoint x="-70" y="515" />
            </Array>
          </mxGeometry>
        </mxCell>
        <mxCell id="WLGKky_bHdKj5OCefhs1-131" value="To other eDelivery&amp;nbsp;&lt;div&gt;access point&lt;/div&gt;" style="edgeLabel;html=1;align=center;verticalAlign=middle;resizable=0;points=[];" parent="WLGKky_bHdKj5OCefhs1-130" vertex="1" connectable="0">
          <mxGeometry x="0.0579" y="3" relative="1" as="geometry">
            <mxPoint as="offset" />
          </mxGeometry>
        </mxCell>
        <mxCell id="WLGKky_bHdKj5OCefhs1-242" style="edgeStyle=orthogonalEdgeStyle;rounded=0;orthogonalLoop=1;jettySize=auto;html=1;exitX=0;exitY=0;exitDx=0;exitDy=15;exitPerimeter=0;" parent="1" source="WLGKky_bHdKj5OCefhs1-123" target="WLGKky_bHdKj5OCefhs1-241" edge="1">
          <mxGeometry relative="1" as="geometry" />
        </mxCell>
        <mxCell id="WLGKky_bHdKj5OCefhs1-123" value="Message Router" style="shape=module;align=left;spacingLeft=20;align=center;verticalAlign=top;whiteSpace=wrap;html=1;" parent="1" vertex="1">
          <mxGeometry x="-575" y="305" width="180" height="185" as="geometry" />
        </mxCell>
        <mxCell id="WLGKky_bHdKj5OCefhs1-127" value="" style="image;sketch=0;aspect=fixed;html=1;points=[];align=center;fontSize=12;image=img/lib/mscae/Person.svg;" parent="1" vertex="1">
          <mxGeometry x="-500" y="340" width="37" height="50" as="geometry" />
        </mxCell>
        <mxCell id="WLGKky_bHdKj5OCefhs1-128" value="" style="image;sketch=0;aspect=fixed;html=1;points=[];align=center;fontSize=12;image=img/lib/mscae/Person.svg;" parent="1" vertex="1">
          <mxGeometry x="-537" y="405" width="37" height="50" as="geometry" />
        </mxCell>
        <mxCell id="WLGKky_bHdKj5OCefhs1-129" value="" style="image;sketch=0;aspect=fixed;html=1;points=[];align=center;fontSize=12;image=img/lib/mscae/Person.svg;" parent="1" vertex="1">
          <mxGeometry x="-462" y="405" width="37" height="50" as="geometry" />
        </mxCell>
        <mxCell id="WLGKky_bHdKj5OCefhs1-141" style="edgeStyle=orthogonalEdgeStyle;rounded=0;orthogonalLoop=1;jettySize=auto;html=1;entryX=1;entryY=0.5;entryDx=0;entryDy=0;" parent="1" source="WLGKky_bHdKj5OCefhs1-139" target="WLGKky_bHdKj5OCefhs1-47" edge="1">
          <mxGeometry relative="1" as="geometry">
            <Array as="points">
              <mxPoint x="-483" y="1190" />
              <mxPoint x="1820" y="1190" />
              <mxPoint x="1820" y="480" />
            </Array>
          </mxGeometry>
        </mxCell>
        <mxCell id="WLGKky_bHdKj5OCefhs1-142" value="Forward incoming message&lt;div&gt;to the eFTI Gate for processing&lt;/div&gt;" style="edgeLabel;html=1;align=center;verticalAlign=middle;resizable=0;points=[];" parent="WLGKky_bHdKj5OCefhs1-141" vertex="1" connectable="0">
          <mxGeometry x="-0.9784" y="-1" relative="1" as="geometry">
            <mxPoint as="offset" />
          </mxGeometry>
        </mxCell>
        <mxCell id="WLGKky_bHdKj5OCefhs1-243" style="edgeStyle=orthogonalEdgeStyle;rounded=0;orthogonalLoop=1;jettySize=auto;html=1;exitX=0;exitY=0;exitDx=0;exitDy=15;exitPerimeter=0;" parent="1" source="WLGKky_bHdKj5OCefhs1-139" target="WLGKky_bHdKj5OCefhs1-241" edge="1">
          <mxGeometry relative="1" as="geometry">
            <Array as="points">
              <mxPoint x="-690" y="535" />
            </Array>
          </mxGeometry>
        </mxCell>
        <mxCell id="WLGKky_bHdKj5OCefhs1-139" value="AS4 message handler" style="shape=module;align=left;spacingLeft=20;align=center;verticalAlign=top;whiteSpace=wrap;html=1;" parent="1" vertex="1">
          <mxGeometry x="-575" y="520" width="185" height="120" as="geometry" />
        </mxCell>
        <mxCell id="3odMCYDfKdZ8ykpnIXUM-5" style="edgeStyle=orthogonalEdgeStyle;rounded=0;orthogonalLoop=1;jettySize=auto;html=1;strokeWidth=7;" edge="1" parent="1" source="WLGKky_bHdKj5OCefhs1-143" target="WLGKky_bHdKj5OCefhs1-249">
          <mxGeometry relative="1" as="geometry" />
        </mxCell>
        <mxCell id="WLGKky_bHdKj5OCefhs1-143" value="&lt;font style=&quot;font-size: 63px;&quot;&gt;Authority Access App&lt;/font&gt;" style="verticalAlign=top;align=left;spacingTop=8;spacingLeft=2;spacingRight=12;shape=cube;size=10;direction=south;fontStyle=4;html=1;whiteSpace=wrap;strokeWidth=5;fillColor=#b1ddf0;strokeColor=#10739e;" parent="1" vertex="1">
          <mxGeometry x="830" y="1400" width="830" height="720" as="geometry" />
        </mxCell>
        <mxCell id="WLGKky_bHdKj5OCefhs1-144" value="" style="outlineConnect=0;dashed=0;verticalLabelPosition=bottom;verticalAlign=top;align=center;html=1;shape=mxgraph.aws3.police_emergency;fillColor=#5294CF;gradientColor=none;" parent="1" vertex="1">
          <mxGeometry x="1020" y="1580" width="420" height="420" as="geometry" />
        </mxCell>
        <mxCell id="WLGKky_bHdKj5OCefhs1-146" style="edgeStyle=orthogonalEdgeStyle;rounded=0;orthogonalLoop=1;jettySize=auto;html=1;exitX=0;exitY=0;exitDx=0;exitDy=15;exitPerimeter=0;entryX=1;entryY=0.5;entryDx=0;entryDy=0;" parent="1" source="WLGKky_bHdKj5OCefhs1-56" target="WLGKky_bHdKj5OCefhs1-119" edge="1">
          <mxGeometry relative="1" as="geometry" />
        </mxCell>
        <mxCell id="WLGKky_bHdKj5OCefhs1-168" style="edgeStyle=orthogonalEdgeStyle;rounded=0;orthogonalLoop=1;jettySize=auto;html=1;entryX=1;entryY=0.5;entryDx=0;entryDy=0;" parent="1" target="WLGKky_bHdKj5OCefhs1-24" edge="1">
          <mxGeometry relative="1" as="geometry">
            <Array as="points">
              <mxPoint x="790" y="1705" />
              <mxPoint x="790" y="1370" />
              <mxPoint x="1980" y="1370" />
              <mxPoint x="1980" y="615" />
            </Array>
            <mxPoint x="830" y="1705" as="sourcePoint" />
          </mxGeometry>
        </mxCell>
        <mxCell id="WLGKky_bHdKj5OCefhs1-171" value="AAP requests for dataset&amp;nbsp;&lt;div&gt;from&amp;nbsp;&lt;span style=&quot;background-color: light-dark(#ffffff, var(--ge-dark-color, #121212)); color: light-dark(rgb(0, 0, 0), rgb(255, 255, 255));&quot;&gt;eFTI Gate&lt;/span&gt;&lt;/div&gt;" style="edgeLabel;html=1;align=center;verticalAlign=middle;resizable=0;points=[];" parent="WLGKky_bHdKj5OCefhs1-168" vertex="1" connectable="0">
          <mxGeometry x="-0.7816" y="1" relative="1" as="geometry">
            <mxPoint x="51" y="182" as="offset" />
          </mxGeometry>
        </mxCell>
        <mxCell id="WLGKky_bHdKj5OCefhs1-169" style="edgeStyle=orthogonalEdgeStyle;rounded=0;orthogonalLoop=1;jettySize=auto;html=1;exitX=0.346;exitY=1.003;exitDx=0;exitDy=0;exitPerimeter=0;entryX=1;entryY=0.5;entryDx=0;entryDy=0;" parent="1" source="WLGKky_bHdKj5OCefhs1-143" target="WLGKky_bHdKj5OCefhs1-25" edge="1">
          <mxGeometry relative="1" as="geometry">
            <Array as="points">
              <mxPoint x="827" y="1795" />
              <mxPoint x="740" y="1795" />
              <mxPoint x="740" y="1350" />
              <mxPoint x="1940" y="1350" />
              <mxPoint x="1940" y="675" />
            </Array>
            <mxPoint x="905" y="1795" as="sourcePoint" />
          </mxGeometry>
        </mxCell>
        <mxCell id="WLGKky_bHdKj5OCefhs1-172" value="AAP requets for identifiers&lt;div&gt;&amp;nbsp;from&amp;nbsp;&lt;span style=&quot;background-color: light-dark(#ffffff, var(--ge-dark-color, #121212)); color: light-dark(rgb(0, 0, 0), rgb(255, 255, 255));&quot;&gt;eFTI GAte&lt;/span&gt;&lt;/div&gt;" style="edgeLabel;html=1;align=center;verticalAlign=middle;resizable=0;points=[];" parent="WLGKky_bHdKj5OCefhs1-169" vertex="1" connectable="0">
          <mxGeometry x="-0.7543" y="1" relative="1" as="geometry">
            <mxPoint x="71" y="170" as="offset" />
          </mxGeometry>
        </mxCell>
        <mxCell id="WLGKky_bHdKj5OCefhs1-170" style="edgeStyle=orthogonalEdgeStyle;rounded=0;orthogonalLoop=1;jettySize=auto;html=1;exitX=0.419;exitY=0.996;exitDx=0;exitDy=0;exitPerimeter=0;entryX=1;entryY=0.5;entryDx=0;entryDy=0;" parent="1" source="WLGKky_bHdKj5OCefhs1-143" target="WLGKky_bHdKj5OCefhs1-26" edge="1">
          <mxGeometry relative="1" as="geometry">
            <Array as="points">
              <mxPoint x="834" y="1885" />
              <mxPoint x="690" y="1885" />
              <mxPoint x="690" y="1330" />
              <mxPoint x="1900" y="1330" />
              <mxPoint x="1900" y="735" />
            </Array>
            <mxPoint x="905" y="1885" as="sourcePoint" />
          </mxGeometry>
        </mxCell>
        <mxCell id="WLGKky_bHdKj5OCefhs1-174" value="AAP forwards a follow-up&lt;div&gt;&amp;nbsp;message to eFTI Gate&amp;nbsp;&lt;/div&gt;" style="edgeLabel;html=1;align=center;verticalAlign=middle;resizable=0;points=[];" parent="WLGKky_bHdKj5OCefhs1-170" vertex="1" connectable="0">
          <mxGeometry x="-0.7661" y="4" relative="1" as="geometry">
            <mxPoint x="84" y="105" as="offset" />
          </mxGeometry>
        </mxCell>
        <mxCell id="WLGKky_bHdKj5OCefhs1-220" style="edgeStyle=orthogonalEdgeStyle;rounded=0;orthogonalLoop=1;jettySize=auto;html=1;entryX=1;entryY=0.5;entryDx=0;entryDy=0;" parent="1" source="WLGKky_bHdKj5OCefhs1-204" target="WLGKky_bHdKj5OCefhs1-73" edge="1">
          <mxGeometry relative="1" as="geometry">
            <Array as="points">
              <mxPoint x="110" y="1220" />
              <mxPoint x="1860" y="1220" />
              <mxPoint x="1860" y="865" />
            </Array>
          </mxGeometry>
        </mxCell>
        <mxCell id="WLGKky_bHdKj5OCefhs1-221" value="eFTI Gate admin&lt;div&gt;can add new connections to the gate&lt;/div&gt;&lt;div&gt;and monitor existing vconnections&lt;/div&gt;" style="edgeLabel;html=1;align=center;verticalAlign=middle;resizable=0;points=[];" parent="WLGKky_bHdKj5OCefhs1-220" vertex="1" connectable="0">
          <mxGeometry x="-0.9513" relative="1" as="geometry">
            <mxPoint as="offset" />
          </mxGeometry>
        </mxCell>
        <mxCell id="3odMCYDfKdZ8ykpnIXUM-7" style="edgeStyle=orthogonalEdgeStyle;rounded=0;orthogonalLoop=1;jettySize=auto;html=1;strokeWidth=7;" edge="1" parent="1" source="WLGKky_bHdKj5OCefhs1-204" target="WLGKky_bHdKj5OCefhs1-249">
          <mxGeometry relative="1" as="geometry">
            <Array as="points">
              <mxPoint x="115" y="2200" />
              <mxPoint x="2630" y="2200" />
              <mxPoint x="2630" y="1495" />
            </Array>
          </mxGeometry>
        </mxCell>
        <mxCell id="WLGKky_bHdKj5OCefhs1-204" value="&lt;font style=&quot;font-size: 55px;&quot;&gt;eFTI Gate Admin Application&lt;/font&gt;" style="verticalAlign=top;align=left;spacingTop=8;spacingLeft=2;spacingRight=12;shape=cube;size=10;direction=south;fontStyle=4;html=1;whiteSpace=wrap;strokeWidth=5;fillColor=#fad9d5;strokeColor=#ae4132;" parent="1" vertex="1">
          <mxGeometry x="-190" y="1400" width="730" height="730" as="geometry" />
        </mxCell>
        <mxCell id="WLGKky_bHdKj5OCefhs1-205" value="" style="shape=image;verticalLabelPosition=bottom;labelBackgroundColor=default;verticalAlign=top;aspect=fixed;imageAspect=0;image=data:image/png,iVBORw0KGgoAAAANSUhEUgAAAgAAAAIACAYAAAD0eNT6AAAABHNCSVQICAgIfAhkiAAAAAlwSFlzAAAOxAAADsQBlSsOGwAAABl0RVh0U29mdHdhcmUAd3d3Lmlua3NjYXBlLm9yZ5vuPBoAACAASURBVHic7d15eFXlvTb++7v2kIQkzIQkQBAcKX2d0KoIFM/Qap2qFhQcO2lPz9u5ivX0yMa2r2J7bI89HcTW2skhWKdabf2dHrSAomVQT7EqVpnMAEJC5j2s9f39EbCIgQx7rfWs4f5cF5eXkqznFnb2c+9nDQ9AREREREREREREREREREREREREREREREREREREREREREREREREREREREREREREREREREREREREREREREREREREREREREREREREREREREREREREREREREREREREFBpiOgAREdH+duzYUdHd3Z1KJpMVpaWle8aMGdNmOlMUhb4AXP5gU5VT0DkqmA4Hx0BwFIBRAEYCqACQMpuwaHkAHQBaAbSI6KuOyitQ3ZhMWSt/eWH1DsP5iIgGTVWlubl5ugP8A4D3Q3EkIEcAOrGPL88D2AVgOwQbRPVFx7I21FZVPS8iBX+TR0coC8Cl9zWerAlZoKr/LMB0hPT/wwWqwEYBnnQsvfe+j9WuNR2IiOhgVDXR1NT0YVW5FIJ/BDC+yEPuhuAJUX1UVR+rra3tciNnXIRm4rz0V7uGayp3tQg+ocA003kC6mUoflZamrzjrvPHtZsOQ0QEANu2vT0hmbQ/r9DLAdR4NMxuhfzUgvPDmpqazR6NESmBLwDz6reNTiP5BQU+h96lfepfCxS3o5D7z3sundxiOgwRxVNzc/N4W/V6KD4DoNSnYW0o7gecr9XW1m71acxQCm4BUJWFDzRdDsV3AIwzHSekdgNy01Evj/9+JiOO6TBEFA+qmmxoavqKQP4dQLmhGN1QfDeZtG6uqqrqMJQh0AJZAC6r33GEovBzhcw0nSUaZLXtyJX3XzL+b6aTEFG0NTU1vd9R/BTAB0xn2WuLOnLphAnjV5sOEjSW6QAHurS+4QIHzp85+btJT09YzoaFy5suMZ2EiKKroaH5GkexDsGZ/AFgslj6VENT0w2qGrg5z6TArABkMmq9Oq35P0T0i6azRNxtR71cfS1PCRCRW3qv7t/xLYUuMp3lkBSP2HZ+waRJk7pNRwmCQBSAefUb02kZdbeqLDCdJR70noqWmquWXSN500mIKNy2bdtWlkgmHwTkTNNZBkb+lO1Jnz9lyqhW00lMM14A5tVvTKcw+iEAHzGdJU4E+F15S/UFLAFENFQbN25Mjxo99mFAzzKdZVAEL5Sm03NHjx69x3QUk8yeD1GVlI6+E5z8fafA2Z2jG3+eyfCcGBENnqomR40Zc3/oJn8AUBzfk809vGnTphLTUUwy+ua/oL75NgiuMJkhzlRlwWvTm5aazkFE4dPY3HwrFB81naMIc4dVVP5CVY2vhJti7H984fLGeVDUmxqf/k5VFt57cfW9pnMQUTg0NDR/FKIPIgCnkYum8pXa2vG3mY5hgpG/vIvvaz48YTnrAIwwMT69xx4krBPvuWj8G6aDEFGwbdux48iE7awDUGk6i0uyjm2dOnFi1Qumg/jN/1MAqpK07F+Ak3+QjFDbuRsxXgojov6pqli282NEZ/IHgBIr4fz6zTff9OtRxYHhewFY8EDzJ/mQn+ARYPal9U28HoOIDqqxccdl0rt9b9S8L11a+gXTIfzm6ye+efXbRqeQfBXAWD/HpYHpzjmtJZX29PvOr2swnYWIgmXXrl3Ds7n8JgBVprN4ZI9Aj6ypqdlpOohffF0BSEnyi+DkH0iqitYee2Tr7sRdprMQUfD05HKfQXQnfwAY4cBabDqEn3xbAbj0V7uGazq3GdzSN5Baumx05BxYljij06mah66o3mE6ExEFw6ZNm0rKKyrfBFBjOovHspagrro6Hu9/vq0AaCp3NTj5B1K24KAj17s1gOOo1a2FHxmOREQBUl4+/OOI/uQPACUO8AnTIfziXwEQXOnXWDRwqsDurnfvC5TNO2cbikNEQSQam0kRin9R1aTpGH7wpQBcel/jyQK834+xaHD29NgoOPqu/1ZwUHL2r7ddaCgSEQVIc3Pz4QBOMp3DR3XNzc1zTIfwgy8FQBPc5S+IcraiI6t9/p6dky/7HIeIAsi2dQGi8MS/QXBUY7EK6s8pANUP+TIODZwCu7tsKPouAFnbmeFzIiIKpvBt9lM0Od90Aj943uouf7Cpyi5okx9jDcW2VrO74U4amTIybnuPjdYe55BfUwnr6MevnviaT5GIyCNvvtkysrS053xVmQ2REwCdBGA4AAeQXQLdpoLn4MifstmuJ6ZMmdIDvHP1fyuA2D0lT6BTampqNpvO4SXPL3RwCjoHAZ3846pgK/ZkDz35AwBKdCGAjNd5iMgbjY2N01XlBkj2YwpJ974TH7jqpxMVmAjFaRD9YklZWWtDY+O96jg3JxKJCY7Gb/IHAFXrBACbTefwkucFQBXv5/QfLC09DrTvlf93cdQ6zfs0ROS2nTt3VuYLhaUKuQYyyFO9ipGA/ItYiY87ipc8ihh4Ks5xAB4yncNLftzqcLQPY9AAdeQUPfkBfPoHUHAc/t0RhUxTU9P78wX7UUCmFHmoUgAfcCNTGInIsaYzeM37iwAFR3o+Bg2I7Sj2dBcG/PWOyhgP4xCRyxoaGmY7wEoAxU7+pJhoOoLX/LgLgM/+D4jWbhvOAJb+91F1SrxLQ0RuamxsfB8k8UjvEj4VS2Lw5Fo/CkCU9o0Ore68ois/iNkfgKOS8CgOEblox44dFQp5DNDIT1p+UWC06Qxe86MAVPgwBh2CqqJ1EEv/+32fr7tFEtHQ5G1dCi77u63cdACv+XERYNqHMegQWrodFAZ23d+7DG69gIhMaGhomAboZ0zniBxBt+kIXuMnvIjLFhSduSHM/kQUEtbXwfdy9ykLAIWY7n3cLxFF05tvtoyE4GOmc0RUl+kAXmMBiLC27Ht3+iOi6CgtzZ0Hnmb1yjbTAbzGAhBROVvR3sPJnyjadK7pBJEleNV0BK+xAESRAi2H2OmPiKJBIceZzhBVorLJdAavsQBEUFvORs7m5E8UfTrJdIKociy8aDqD11gAIqbgKNq6edU/UUwMNx0gorJOLrfadAiv+fEcgECbNDJlOoKrWrocLvwTxQfbvjeemTRpEm8DpPDoyCl6hvLEHyIKJ8Fu0xEiSfDfpiP4gQUgIpxB7vRHRBGg+obpCBHkwHF+bTqEH1gAImL3IHf6I6JI+LPpAJGj+GNtbe0W0zH8wAIQAd15B92D3OmPiMJPgD+azhA1auFnpjP4hQUg5Hp3+uPjfoniqLq6+kkAO0zniJDNrbt2/cZ0CL+wAIRca7c9pJ3+iCj8RKQAxU9M54gKgSyePn16znQOv7AAhFi2oOjIcemfKM6y2ZJvQ9BqOkfoKTZVV1fdYzqGn2L/HIDQ0t4L/4go2nbs2FFdcJx/gINTYOEYUUxVyBhAKwCkgCz48A8XCI5sbGrONzQ2Dea78oB0CHSXCt6Ag1fUwpqUZa2oqqoa1IFMYAEIqT09Dgp83C9RJG3fvn2MlUxeCsXlBds5CQAgAHTfXM+f/YBIATpKgVFQHAHBh0Tx+YLtoKGx6c8q+KUWCvdMnDhxl+mgfWEBCKG8rWjP8sQ/UdRs3759omUlvwrBp6EYZjoPFeVkUZwsieTNDU1Nd9r55HcmTRr7lulQ++M1AGGjwG7u9EcUKaqaamhq+oKVSP4Vgi8AnPwjpByKLyaShdfeamzMbNq0qcR0oH1YAEKmLetwpz+iCHnrrbeObmxs/jMU3wNQYToPeWaYQBaXV1au2b5951GmwwAsAKFScBRtPbzwjygqGhqaLxIrsRaC40xnIZ8ojrcS9tqGhuYLTEdhAQgR7vRHFB2NjY1XQfQ+8FN/HFVCdHlDQ/NnTIZgAQiJzpzDnf6IIqKhofkahfwMvBA7zhIQ/dFbTU2fMxUg8i++VX9tNB2hKLOm1cBx+LhfoqhoaGi+CKI/MJ2DgkEU321oaN5WWzv+Yb/H5gpACHCnP6Jo2LZjxxEQvQtAwnQWCowERH/Z0NBwjN8DswAEHHf6I4qGjRs3phMF5wEAw01nocCpgMg9qpryc1AWgIBr4dI/USSMGjPmy7zanw5OTmhq2vEFP0dkAQg4m9f9EYXetm1vT4Di66ZzULApdPHOnTtr/BqPBYCIyGOJROFaAOWmc1DgVeQLha/6NRgLABGRh7Zv3z4Ggk+bzkFhIdds3759jB8jsQAQEXnISiYvBZ/tTwNXnkgkLvFjIBYAIiIvKS43HYHCRSFX+DEOCwARkUf2XtA1w3QOCp2Tm5ubx3s9CAsAEZFH8rZ9BgAxnYNCRwqqc70ehAWAiMgrDk4xHYHCSYBTvR6DBYCIyCsWfH+8K0WEytFeD8ECQETkFcURpiNQOAn0SK/HYAEgIvLOSNMBKJzUh9cOCwARkXcqTAeg0Kr0eoCk1wOYNmuab49VHrSevIOdndzsh4iI/McVAEMcVezmTn9EUddhOgCFVrvXA7AAGNLa43CnP6LoazEdgMJJgFavx2ABMCBbUHRmOfsTRZ7gb6YjUDgpZJPXY7AA+E2B3V1c+ieKBQevmI5AISX6qtdDsAD4bE/WQcFR0zGIyAdqYY3pDBROovqs12OwAPgobyvae7j0TxQXSZH/AcDGT4OllmU97fUgLAA+2t1tQ/leQBQb48ePbwaw1nQOChcFntv72vEUC4BP2rMOcgVO/kRxo4Jfms5A4WJBfXnNsAD4wHYUe3p44R9RHGmhcA+ATtM5KDQ6bdu+34+BWAB8sKvLgfLDP1EsTZw4cRcEd5rOQWGhP544ceIuP0ZiAfBYZ85BtsAL/4jizM4nvwOuAlD/2pOJxHf8GowFwEOOAq183C9R7E2aNPYthX7DdA4KNoEsqaqqavJrPBYAD+3ussFb/okIAGqrq28DdIPpHBRUsr66uup2P0dkAfBIT95Bd55L/0TUS0TydiIxH0Cb6SwUOB3qFBaKSN7PQVkAPMCd/oioL5Oqql6HylUA+AZB+9gquHTChAmeP/r3QEm/B/Tbqr82mo5QlMk1Y01HMOrieZetgGCu6RxkTB69W+q2AmgR4FVVfUVFNpbkZeUvH/rlDsP5Bq22dvxDDQ3Nn4XoHaazkHEKwWcmVFc/amLwyBcACjdJYIk6LAAxlgIwau+vKQqcCBEIgFxK9eL5l22E4EkRufe++34Zmifu1daOX9bY2JhTyJ3g+3Bc2VD519qa8T8xFUC8HmBhfaPRy+C4AlCclVfXef4a6Q9XAWiAXhbgZ1096TseffSudtNhBqKhofmjEP0FgErTWchXbSq43NQn/314DQAFniSwxHQGCoX3KfDtstLclkvmX5ZZuHDhKNOB+lNbO/5hO2HN4N0BcSLr7YQ1w/TkD7AAUAjcd9+vnoLiKdM5KDRGKbDYLiRev3jeZV/IZDKBfp+bVFW1qaa6+gMQfBFAKFYuaEi6FLqkZffbp02qqnrddBiABYBCgqsANHg6GoLv/fXl1/908cVXHm46zaGISKG2uvo/U8nE0RB8F3xqYJR0AnpbMmEdPqGmJjN9+vSc6UD7sABQKHAVgIpwOtTecPHFl19iOkh/xo0b11hbXf1lxy5MVujnADwHcA/xEFIF1gj0/9qFfF1tTc1X/HzC30Dx6lMKDd4RQEWohOq9F1982cnTph1xbSaTCfRTuvZuBvNfAP6rqampygbOEOBUqB4DWFMAHQegAkDabNLYywHoAGQn4LwJkVcUWJMAVlRXVwf+FlXeBRBwvAvg3XhHABVN5J4RI8quWrZsma9PXSMKGp4CoFDhtQBUNNWFra1dD1199dUp01GITGIBoFDhtQDkBgHObmvt+nnQ7xAg8hJf/BQ6XAUgNyiw4OWXX19qOgeRKSwAFDpcBSC3CPDV+fMvW2A6B5EJLAAUSlwFILcI8KOFFy2cajoHkd9YACiUuApALhphW9bd8OGuKKIgYQGg0OIqALlGMHv+/EuvMB2DyE+Rfw6AaxRo6iggb0fjf2eggvYcgAPxuQDkFgV25HLJox9++O5W01mI/MAVgAHak7VjN/mHAVcByC0CVJWk8p83nYPILywAA5C3Fe09gX5yaGzxWgBylVhfOO+8T1SajkHkBxaAfiiA3d02d+MIMK4CkHt0dFlJ7tOmUxD5gQWgHx1ZB7kCp/8g4yoAuUrwSdMRiPzAAnAIBUexp8c2HYMGgKsA5KL3XXLJFSeYDkHkNRaAQ2jpsqH88B8KXAUgNzmOs9B0BiKvsQAcRGfOQQ+X/kOFqwDkFgH+yXQGIq+xAPTBUaC1m0v/YcNVAHLRcQsWLBhrOgSRl1gA+tDSbcPhh/9Q4ioAuUQcJznHdAgiL7EAHKCnoOjK8Z7/sOIqALlFVKebzkDkJRaA/TgK7O4smI5BReIqALlBgaNNZyDyEgvAfvb02ODTfsOPqwDkkqNMByDyEgvAXllb0Znl0n9UcBWAXMCLACnSWAAAQPfe8286B7mGqwDkAu4JQJHGAgDu9BdVXAWgIrEAUKQlTQcwrb+d/rY0vl3U8SfXcBWRKKRKTAcIO713RlGfrGTBOnErC71XrFcAenf6c7j0H1FqY7HpDEREQRXrAtC70x8v/IuiSy65bC4Ec03nICIKqtgWAO70F2389E9EdGixLQDc6S+6+OmfiKh/sSwA3Okv2vjpn4iof7ErANzpL9r46Z+IaGBiVwBaurjTX5Tx0z8R0cD4UQACs7tOd17RledV/wMWsjtw+emfiGjg/CgAPT6M0S8Fl/4Hy4KEqi3x0z8R0cD5UQDafRijX63dNgpc+x8UAUJTAPjpn4hocPwoAA0+jHFIuYLDnf6GwLKQNZ1hoPjpn4hocHwoALLN+zEOjo/7HboEsMN0hoHgp38iosHzvgCI87LnYxxCWw93+huqRELeMJ1hIPjpn4ho8DwvAKLWS16PcTB559A7/dGhicha0xn6w0//RERD43kBsO3ESq/H6IsCaOm0ufQ/RAJAkL7LdI7+8NM/EdHQJL0e4L4F4xoW1jdsAuRIr8faX2fWRtaFpf/JNWNdSBM+iYR0P37luNdM5+iPCH6v4ApA2KST0r34Y2PX3vnH1trNO/OHm85DFEf+PAlQrMd8GWevgqNo5dJ/UVIW/td0hoG4r/5XSwW43nQOGrjJ49Jv/OTqmu2HV6Vnf/TkCqMXCRPFmS8FQBz7N36Ms09rl8Od/oqUsKzbTGcYKJaA8Ljg5MrVSxeMG59O9q4InnhY2UTTmYjiypcC8Ov5tc8AusmPsbryiu4CP/0XI2lJ9okrJ9xvOsdgsAQEWzop3d+aP27lxacNPx1A+X7//YjJY1OhuNuEKGp8OgUgqpA7vR7GUaClKzBbD4RWOil/MJ1hKFgCgumdJf/q9Oy+fv+8kyq2+p2JiHzcDbCAkmWAtHo5Rks3d/orliXQ8sqSz5jOMVQsAcFy4JJ/X06eWjbBz0xE1Mu3ArB8/ug9qs6PvDp+d17RlePSf7FKEtaKBy8a12g6RzFYAsxLJ6X7/13y3iX/g3ztkTwNQOQ/3woAAEgh/20Ab7t9XEeB1m4u/RdLRJwyyFWmc7iBJcCcyWNTb/zk6pq3plb1veTfF54GIPKfrwXgnksntwC40e3j7umxwev+ijcshZ888okJkbktiyXAfxecXLl66cKq8emkHDGY7ztpalmtV5mGSoGM6QxEXvK1AADAUS9X3wFglVvHyxWUO/25IJ2QPb+/cuK/mM7hNpYAf5SmrM7/uKx69UCW/PtSkpSjJo9LB+Y0gAKZ+vpfLTGdg8hLvheATEYcWIlPAOgo9li9O/3xcb/FEhFNp3A+RCLZpFgCvDV5bOqNZZ+ubpwwOnF6Mcc554TyQJwG4ORPceF7AQCAez5WtUkgnyr2OO3c6c8VFWl854krJj1tOoeX9pYAvqm7SAR61dyRTy9dWFUz2CX/vnzg8LIaN3IVQ4AlnPwpLowUAAD49fzq+1XxH0P9/rytaOPjfotWlpLnHr9y0nWmc/jhvvpfZbgS4I5RFcnmH3y8eu2Zx5Z/EECZG8csScnRdWOTb7pxrKFQIHNf/a8ypsYn8puxAgAA986vvlZEfjXY71MALV1c+i9WOmVtzm2ZOMt0Dj9xJaB4F5xUufqHHx9fNroicbLbx55/6ogtbh9zIPjJn+LIaAGAiOZ01ycBeXgw39aZdVzZ6S/OShJW87CcNf2pjMTu/sm9KwF8sx+kurHJN3/4yeq1F88cfroIhnsxxowppe9PJyTrxbEPRoAl/ORPcWS2AABYPn96rqJl/Hwo7hvI1xec3tv+aOhKk/JGWcGa+ttrartMZzGFJWDgKkqtPV+/YOzTty4cP3F0eeIkL8cSwdiLPlD5vJdjvGs8Tv4UY2I6wDtUZeEDjd+Eyg2H+rKdHQX0FPjpf6jKUvLck1dNnBnVK/4H65L5l2UUWGw6RxAlE5K7+NTha86ZUTFdgDF+jauKls/c1Wjv6XTGejlOGCZ/vXdGrN/sZMG64MxREWR8BeAdInrPvNp/g8hHAezu60u6csrJf4gsS7QibX3vyY9POpWT/99xJeC9SpLS+Ym5I5/+xWdr3j53RsUcPyd/ABDBqJsuHPe6iHeX+YRh8ifyWnAKwF73zKt+BAk9EcC7dqRzFGjh436HJJ2QPeVJnfvEVRO/ZDpLELEE9KostVo+d+aop+7+bG32Q8eWf9ASMfZ0vvGjkqd++ewxntyaysmfqFegl1curW9aqNBbAEza1VVAV46f/gfDEnFK0/LzP1wx4VP81N+/OJ4OEIFz2pHlGz52SkW2dlTyRAClpjPt7783dj79kz+2ftCt44Vt8ucpAJ4C8FLg/3Cv+tmbpR2lJTe83WnfYDuaMJ0nDMSCllrWijLIVVF6tr8f4lICpoxLvX7hKcO3z5hScpTJT/oDsakp+6fMA7tm2o4mizlO2CZ/gAWABcBbofnDnVu/saKka8S38wW9Iu/oMNN5gihpSU86gT+UlKSveXTh+GbTecLqkvmXLVLgFtM53FSatrqOryt55UPHlnccXVNyeCKBCaYzDUbOxmv/8diu7Itbev7PUL4/rI/3ZQFgAfBSKP9wz/5Z47y82p+xgVNyBWfQG49EhQBIJtCdtOR/E5Z12xNXTrjfdKaoCPNKgAicSWOSW048rKzhuMklhbqxqdHlJdZRAEpMZyuS09RaeO7up1vLX9iSPXag3xTGT/77sACwAHgp9H+4H/nZ9uMd6EdVcaoDHGM7GKvQtKNIOIAV9scFCnqfuS4ihYQlOQvOzoRl/U1E1grSdz1+5bjXTGeMqqCVgHRSutNJyZaXSkdJUvLl6URP1fBER924VPeE0SmtGp5Ijyy3KstSMllEKk3n9VKuoG/8rTm/bc2m7pLXGrNjd3fZI9u6nNGq776wOcyTP8ACwALgLf7hEh2CrloU6zfgsJNZS0P9HhfzAtAmC9aNMB0iygJ3GyARERGAQGwPHWUsAEREFDyKJ01HiDoWACIiChobSeenpkNEHQsAEREFzQ9k/oaXTYeIOhYAIiIKDtX/Rhu+ajpGHLAAEBFRENgAbke7fESuWZc3HSYOinq0JhERURE6AGyG4kkknZ9y2d9fLAAUC/rIeZVIl54DBx+EpSdBMRHA+L2/3QzFFkDWwnKeQiH7Ozn3t10m85K7tH5eGSpwNkTnQmUGgMkARgFIAGgFsBnQFyD4H+Ryv5PzH203mXcfPgiHvMQXF0Wa/u7ioyD2IkAWACgb4Le1A/pr2HIzRk3d4mU+8ljnljrY9tcAXA6gYoDf1QXFvXCcpXLubzZ5mI7IKBYAiiT9w+XlcHpuguIL6P2UNxQ5DJ+adjMX+aztjRyAof4d5qH4HoaV3yhn3N3jZiyiIGABoMjR3887Ag4eBjC96IMNn1p8IDKn7Q03jrIGln2hnPlgoxsHIwoK3gVAkaKPzZsBB8/DjcmfqNepcBLP6xMXDXgHQqIwYAGgyNA/XHQMLDyJ3ou7iNw0EWo9ob+dN8F0ECK3sABQJOgj51XCth4EMNp0FoqsWiTxiNbPG+jFpESBxgJA0ZAq+QaAaaZjUMQpZqAC15uOQeQGXgRIoaePz3sfgBfhxXMtPL4IsGXl0qK+f9TsRS4lGZrA53fnIsADdcKyj+RFgRR2XAGg8BNcDz7UivxTDifx76ZDEBWLBYBCTR/66EgoLjadg2LnCn3kvErTIYiKwQJA4VaSPA9Df9AL0VCVI1XyEdMhiIrBAkDhpnKG6QgUW/9gOgBRMVgAKNwEM0xHoNjig4Eo1FgAKOwmmw5AscXnRFOosQBQaOmKuUkAw03noNgaYToAUTF461Q/9N4ZWsz3cz9vD819ysYT80ynICIKJa4AUGiJQAG0m85BsbXHdACiYrAAULgpPHnUG9EA8LVHocYCQOEm+oLpCBRTKi+ajkBUDBYACrv/MR2AYspy/mg6AlExWAAo3LKFRwF0m45BsdOJUnnCdAiiYrAAUKjJBQ+3QvCA6RwUN3qPnLG8w3QKomKwAFD4FZxvACiYjkGxkYOjt5gOQVQs3qPeDz4HIBz08fnfBfSLrh94+FQHLMphZaPtjYTrR1XcImcv/5rrxyXyGd/YKBo69AYoXvHgyDkPjkn+yHpwzGchHRkPjkvkOxYAigSZv7wbjnMegLfdPbLm3T0e+Ubg9t/dNigulI884UWxIPIdCwBFhpz7m01wcCaAnS4etc29Y5GvVN18Ut82KM6Ws5c3uXhMIqNYAChS5Jzl66DWLAB/ceWAqq2uHIcMULfK27NQfEDOXv6/Lh2PKBBYAChy5Oz7X0MHPgDIf6C4c/g5iO52Kxf5rgVF//3LzUDHGfzkT1HEAkCRJPOXd8tH6r8K23k/oHcC6BrEt7dB5Q6ofRTEWu9VRvKYJjZAEkfv/fsfzKZRnQCWwXGmyVn1N/CcP0UVtwOmSJNzf7MJwNX6+KVfBXIfAvDPAI4FMBW9+7k7AHYD2ArIWkD/rDIi6AAAIABJREFUhA78TubXdwOArl70N1PZqUjivCln3bcZwNVaP+8LqNRzoNZsQE8GMAnAaAAJAK0A3gR0A9RagWH6OB/yQ3HAAkCxIB/5dRuAB/b+GjjF654EIj+8s1ufzF/eDWD53l9EBJ4CIDo0SzaZjkBDZCVeMx2BKMhYAIgOJVu6GUCP6Rg0aB04rYQFgOgQWACIDkHOyBQArDWdgwZLNohkHNMpiIKMBYCof6tMB6BBUmwwHYEo6FgAiPqjzmrTEWiQLPzJdASioGMBIOpXYjV6bxekcLAh2RWmQxAFHQsAUT9k9i0tAJeUQ2S9zPwun+BI1A8+B4BoQPQ3gMwwnYIGQn5vOgF5o+7ml0Yhb78PcKaoYrKoHAbBeABjAIwWYIz2zmslAIbt/bYuAFkBCgrsQu+v3YA2KbBFBFvEsd7QksRft37t2BYj/2OGsAAQDYStDyAh/890DBoAsepNR6Di1WbWjk1CThXgNBWZAWA6coWJvb8rkN5/vIv2fahhAIbt/b1xf//Pe4+hgIoCuQLqlqzfLoK/QGWdqrPGTheefeuGU3a5+f8VJNL/l8Sb3jvjIK+pgZEF6/hnHBG66rr/BeT9pnPQIb0is5ZOMx2CBm/8t18sL+ksnKGQD4vgnwAcYzoTejvFKwD+WyB/6BlmPdV87XGdpkO5hSsARAMmywGwAASZyv2mI9DATfh/z41JFlLnA5inXfY/QCQdsE9MAmAagGkK/VxJl52tu2n9H1X1AdXSR7Znpof6WpOA/VkHT7ErAEj0VMr8jdxYJAJ01XW1gGwGkDKdhfpkIyFHyGm3bDYdhA5uxh1rU283yrlqySeh+BDC+0E0D+iTAvx0bLU+tu6ak/KmAw0WC0A/ii4A0GcwrOxMOX/1YLYjpYDS1YvqoZhnOgf1RR6VWbecbzoF9W3KN9dPtm39V0CuBFBlOo/LmqHy8yTsH7yROWmr6TADxdsAPScz0dX9e33k9ErTScgFtvMD0xHoIBQ/Mh2B3mvyTetPq1uyvt628Tog1yJ6kz8AjIfodQWx/laX2XD/xJvWnmI60EBwBaAfxa8AvHMkrgREhK5a9BKA/2M6B73LRpxediyf/x8ckzMbZqqFr0H1HNNZDFktsP59y+LjA/tQKq4A9M+l8/dcCYgOXWo6AR1A5Vuc/INhcmbtiXVL1j+poqtjPPkDwOkK53/qlqz//eSbXjjBdJi+sAD0R+Hi+RyZia6ex7V+eoV7xyTfnT7sXgAvmI5B73gdhdLlpkPE3aTM+tq6zIY7VKznAfyz6TwB8mFVZ13dkvX1UzNr60yH2R8LQH8sedLlI86CXfIHrgSEl0jGgeJG0zloL5Ub927bTCZkViQnL9lwrQheg+jVABKmIwWQAJhXEGvj5CXrv4LMikDc+cBrAPqh9Se8D7b1Etx/Ua9Coucs3iIYXrr6+qeg+kHTOWJuDU5fOlPkYA+BIy8dltlwvCO6DMDJprOEiQIvqlpXb88c/7zJHFwB6IfM3/AyoF5cXTwLdukTPB0QYupcD+4SaJJCrS9y8vffjDvWpiZn1n3LEV0LTv6DJsBxljjPTF6y4Zsz7lhr7LkiLAADkch+BdCnPTgyS0CIyaxb1wDgbYGmKO6W2Tc/ZzpG3ByWWXvMzibrWRW5AVzuL0ZCof+2s8l6Zso3XjzaRAAWgAGQ+RtzyBfOBvCUB4fnNQFh1ml/DcCbpmPEUCMgXzEdIm7qlqy/3BFrHQDujOmek2zHXjd5yYZL/R6Y1wAMgv7i2HKkUo8BmOvB0fmcgJDSVYvOAvC46RyxonKhzL7lIdMxYiOzIlknI74JYJHpKJGmsqwS6c9tzEzP+TEcC8AgsQRQX3TVdXcC8inTOWJB5Jdy+i1XmI4RF4dnXqzKi/0QgJmms+xVALAZgtdE5VVH9DV1dLNY1i5xtNOCdDkliT1bs7vaAaCuZEyllbVHOJaUK3SYOs4YseQwS+UoFT0aiqMAHIbg7EmwOpfCBU03nLjT64FYAIaAJYAOpCsypUh1rwKXRr32GqAnyaxb+fPhg8Mya49xJPE7QKeaS6HtAP4ksJ52BE9VjbdfcHvjnemZjek9yB9vWfZcQD4I1dmAmDwt+7eElTj7zX8/7lUvB2EBGCKWADqQrv7KZGhyHYAxprNEVCeAU2TW0o2mg8TBxJvWf9BSPARglIHhXxHBr23HenI7WtYjc4a/z3nIrEhOtCpnWLA+DNWFgJi4SG+3in50240zVno1AAtAEVgC6EC6ctG5EDwC/my5TQFcIrOW1psOEgcTM+vOtEQeBFDm47C7ofIAYP9ya+akVT6O26+6m16YDnUuB3AlgGofh+5yVC/anpnxey8OzjepIrEE0IF01fXXAnqr6RwR8zWZtfQW0yHiYPKSdRco5D4AaZ+GXAnot7dO+9vjmD/f9mnMocmsSNbJ8LMA6zpAZ/k0alagC7YsnuH6Ra8sAC5gCaAD6cpFSyG4znSOaNCfyKxbP206RVzU3bT+RiiWeDyMQuR3AG7ZeuMJqz0eyxN1mbWzYFlfg+IseD2XChZvvfHEm9w/LLmCJYD2pwrB6uuW8c6AIikeQKFsAZ/176+6JesygCz25OCCBxxHv7E9M+MlT47vsyk3rT+uANwoigu9GUGXbF08I+PFkVkAXMQSQPvT+nkJ1Ey9D4KPmc4SUr9BvuwSTv5m1C1ZvwiAm6ddNin0c9sWz/iDi8cMjMlLXjhD4XwfwHT3jiqZrYtP8Gw1hgXAZSwBtD+tn5dA7dQ7AHzSdJaQqUdpy2Vy0jJXb/eiwXGpBHQB+u30qOE3v/75I7Nu5AqqGXesTe1sSnwWcL5R/G2E3k7+AAuAJ1gCaH+qEKy6fjFEvVlSjZ4f4PSyz4tkuNFSABRzOkCBJzRhfXr7149/y+VYgTYh8+LEpGXfqYozh3YE75b998cC4BGWADqQrrz+KxBdCm6gcjAK6L/JrFtvNh2E3m0IKwEFQL+1VU+8CRmJZ5FTlbqbXvj83juCBnFHhfef/N8ZyY9B4oolgA6kK6+fC9H7AIw3nSVg2gD9uMy69UHTQahvAy0BCmwVkYVhvbrfbZNu2nCyKO4b2NMU/Zv8ARYAz7EE0IF0zXUTUZAHAJxiOktAvIKEXiin3fpX00Ho0AZwOuARS+WqzZkTWv3KFAZ1N780CvnC3VCcd/Cv8mfZf38sAD5gCaAD6YpMKdLdt0DxOcR3W24F8F+wcotk5ne7TYehgTnYSoCo/nALTvxcbJf8+1Nfn5j81yO+r8C/vPc3/f3k/86ofg8YVywB1Bd9ZtFMOLgLgIlnjZvUBFiflFk3cxvlEOqjBCzduvjE603lCZP3/tmZmfyB+H7y8J1c8VIn8vlzADzlwdFnoqv79/rI6SZ3r6IhkJlLn0Fp2YkAvofebU6jLg/gu0iWHc3JP7y2Lj5xKYDrAdgq+BdO/gO3dfGJS1Xk4wAKJid/gCsAvuNKAB2MPnvdNNjybQBnm87ikf8B8Hnu5hcddZn179uaOfFlE2NPvWXtiHxP8hRL7CMVOBIiR6pigkAqAR0OYBgAFaBLIe0KbRfBW1DdJMAmhfVaWrPPvZ45tc1E/rqbXpi+9cbjjf4ssAAYwBJAh6KrrvtnQG4FcLzpLK5QPI8EbpSZSyP5BDjyxxG3byrJtbR9CMA/ApgDyLEo/pZaG8CLUPkT4PyxEqVPbsxMzxUdNiRYAAxhCaBD2fvwoA/D6XoCCT93ZHWR3QNYpefJ7KW/NR2FQiqj1mR58YOqzkIILgIwyuMRdwP6G0Hi3i163NNRv6CRBcAglgDqjz4+T5EoAUpGAMlyBP5HVhUodAC5NsDOQj6yPOCBKYimZzam263sJVBcD2CaoRh/A+T7TmX3su1fnhnJu1T4w2kYSwAdij4+T9/5F7GAVEXvr0SpwVQHUABOD5DvAPKdgP59S3cWABqMwzIrSh1r+Oeh8iUA1abz7NUoIrelRlZ8P2p7GfAuAMN4dwANmDq9n6w7G4COrUDP20ChG70zsO9hALsb6NkFdG7tzZRre9fkTzQYdUvWnevIyI1QWYrgTP4AUKOq3861tG+sW7JhnukwbmI7DwiuBFBf3rUCcFACJMuARMnff4nL2w2oA9jZ3vP6hZ7efw6geHAFgPoz5ZvrJxds/EiAs0xnGRj9XVL1s29kTtpqOkmx+MMZICwBdKCBFYA+SBJIpABJAYlk779bCQBW76kEsdD746+9kzvQe/5eC73/rjbg5AE7Dzi5IX+yZwGgQ5mU2fBREf0pgNGmswzSHoVes23xjPtNBykGfzgDhiWA9jfkAhAQLADUl8MyK0pVRtzW92Nxw0MhP0ho61c3Z87oMZ1lKHgNQMDwmgAiirK6m18a5cjI/y/skz8ACPRfVUY+VZtZO9Z0lqFgAQgglgAiiqJJmfW1kis8Begs01ncotBTkmL9aWpmbZ3pLIPFAhBQLAFEFCW1mbVjRfCcAseazuKBaQWxVoVtJYAFIMBYAogoKhoyJ70N4L9M5/CO/HTv/2NosAAEHEsAEUXFfrsIRozZXf2GigUgBFgCiCgqolcCwjn5AywAocESQERREZ0SEN7JH2ABCBWWACKKit4SoG5Mnk1QqYfolxzVsxJW4hikk6PToypLLd1ThnRytKXONAE+AtEvAVgOoKn4YXVJmCd/gA8CCiU+LCg++CAgirq6JesygCwe5LfthuJXFvTezYtPfA4ig/s5UZXJ39hwqioWALgUg34SoS7ZunhGZnDfEzz84QwploB40D9cprBDugFZogTy4V/xPYb6NYgS8BYEt2bLEj9tvva4TjfGHpfZWFFm9XwKKtcCqO3/O6Ix+QMsAKHGEhB9umqRwu4Bsm1AocN0nIFJlQPpkb0FYNZSvsfQgPRTArIAbssOS3zLrYn/QOMyGyvKJPt1AF8CkO77q6Iz+QMsAKHHEhBtumrR35c21QZyHUChHbBzBlP1IZEGUpVAquJdOxGyANBg1C1ZvwjALe/+r/qqpdYlmzMnvOBLhptemA517gcw/d2/E+4L/vrCiwBDjhcGxogkgJIRQPlEoGIiUDoaSJSay5Mo6c1QMak3U3qE+9sQU6wceGGgCh7s1tKT/Jr8AWDrjcdvLCvtOk1EH/77fw3/BX99YTuPCK4ERNO7VgAO+kUOYPcAhS7AzvZu47tvi1+3iAVY6d5JP1EKJMv2bincz7dxBYCGoG7JugxUxm993+v/F/PnD20v6mLV1yfqXj7ivyDaHKVl//3xhzNCWAKiZ0AFoC9ODrDzgOYBp9D7Sx1AC38vB/v+uW8iFwuQ5N7JPgFICrBSQCLVO/kPAQsAUXDxhzNiWAIiIKPWrOqtZ4sli/70vh+cAiBpOtIQ5ee8/K8vqejtNSPqfr18vpj5JEdEfWIBiCCWgHA66/ZNJe1l6YtF5XoA0wDg6Wk/aBdBKK/BUJE9H9z42RG9/4I3RPT2Tk3due6a2i7D0YgIvAgwkuSKlzqR6DkXwCoPjj4TXdl57h83vmbf1Thuzh1bMh2lJdtE5efYO/kDQAGJ3QajFSVvS8s7/yKYqpDvDZPC5jl3bMnMvqtxnMFoRAQWgMiS+Rs7kM+fCdfvDtCMLFh7l7vHjKdZd22ZOufObf+JQn6ziiwG8J5JscMu2WUgmivandK+tkYdpyKLUchvm71s2y/m3Ll5Wh9fQ0Q+YAGIMPdvEdSMLFgfuVth/DZn2eaZc5ZtfVAKsklVPw9g2MG+9m/Z0aE91fJGduyhHthSAujlqtZf5izb+uCcZZtn+haMiACwAESeeyWAk39RMmrN+vGWc2cv27pKYa1W4AIM4OdvZfvhJT6k88TTbVMG8pACS4ELFNbq2cu2rp1155Yr5tUrHyZA5ANeBBgTxV0YyMl/qE67bVtZskKvBPBlAEcO9vtHJHtafnvUTysApFwP5638Oa9+qrPNLhk5hO/dBOC2Qof8/NkvT+p2OxgR9WIBiJGhlQBO/kMx+67GcVrIfUIgXwBQU8yxHjry7nVjUp0zXIrmi12FYWsveO3jJxV5mLcF8lM7obev/mRdgyvBiOgdLAAxM7gSEMzJf+2KtWOzaT1LRP8RkPdDdQqA4Qjv/fIULgUAeyCyGdC/qMofk0nn8VNOOSW0F2yGVd2S9UVtl7118YmxngNj/T8fVwMrAcGb/Fev/vP7Bc4NgFwIILTnximSslD8RkVuPv30k/9iOkxcsAAUhxcBxlD/FwYGa/Jfs2bN8GdXP79MoC8CsgCc/Cl4SiBYKNAXn1n9/B2rVq0K5cObKF5YAGLq4CUgWJP/ypXPHefY1osKfBp8vVLwWQCutqz0i2vWrDnWdBiiQ+Ebaoy9twQEa/J/duWf5yYsWQngMNNZiAZFMcWxrVXPPPP8B01HIToYFoCYe+exwaKfCNLkv2blmhlq6aNAOJ+DTwSgEorfrlm5JlR3cFB8sAAQZP7GDrlk/c9M59hn5cqVo5yEtRyc/Cn8Km3Leui5554bYzoI0YFYAChwLKvk+1BMMZ2DyA0CTLLz1m2mcxAdiAWAAuWZZ56fKcBC0zmIXCV6+bMr155iOgbR/lgAKFBE9d/A51NQ9IhjOTeYDkG0PxYACoxVq9bWKeQs0zmIvCDAOWvWrJloOgfRPiwAFBgJ6EXgp3+KLstxrItMhyDahwWAAkMtPcN0BiJPOeBzASgwWAAoOBS8X5qiTfgap+BgAaBAWLt2bQpAtekcRB6bsGLFCu5aSYHAAkCB0NVljQRfjxR9iZKSkuGmQxAB3D+dAmKY7WguYToFkfds2y5qC1v6u7hv51ssfuKiYKjEHgC26RhEHrMbGxvbTIcgAnjLFQXIM6uf3waA90lTlG2fefoHJpkOQQRwBYCC5VXTAYg8pXjFdASifVgAKDAU8rLpDEReEgFf4xQYLAAUGCLYaDoDkZdUhK9xCgwWAAoMx3H46YgizXK4ykXBwQJAgdGT4vIoRVtHyv6r6QxE+7AAUCCccvum4UterP1xe54vSYqm9oKFJS/W3j3rh1tGmc5CBLAAUADMvmPzienSkhcA/diOHJ9NRdHU3JMEoOdIQtbOXLb9eNN5iFgAyKhZP952JkSeAjAFAJqyKbOBiDzSnN1bbgVTE3BWzfrxlnPNJqK4YwEgY2Yt2/pZsfQxQCr3/bcdPXweMEVTc+5d5bZcLHlozh1brjGVh4gFgIyYc8fWrwjwAwDvmvGbsjwFQNG0o+c9r+2Eivxo9h1bv2QiDxELAPlu1rIti1Twnb5+r5kFgCKqOdvn6pZAcNucZVu/6nceIhYA8tXsZds+LZBbDvb73bYF3glAUdNesNBlH/x1rcCtc+7c9kkfIxGxAJB/5izbeh6gP+rv63gnAEVN83uX/w8kqvrjWcu2nONHHiKAuwGST+bcuXmaqrUGwPD+vva8mnacPrrTh1TxYVkWyoaVoqy0FKmSNJLJJCyr98ffcRSFQgG5XA493T3o7uqB4ziGE0fL6l3D8GhTvy99AOhIWDjtqU/V/cXrTET8qEWeO+0n20arrY9B+p/8Ad4J4KZkKoWRI4ejvGIYRPru+4mEIJFIo6QkjcrKCqgqOts70bqnHYV83ufE0XTAHQCHUmE7eHDWD7ecsuqzk1u8zETEUwDkuZTixxBMHejX806A4okIRo0ZiQkTq1FRWX7Qyf9g31sxvAITJlZj1OhRg/pe6lsfdwAcypFIyE+8yhI1Wj+9Qu878eOmc4QRCwB5atadW65W1XmD+R5eA1CcZCqFmgnVGDFieFGTt4hgxMhKjK+pQjLJVZliNOcG9+cnggtnLdv6CY/iRIb+4thy2KW/hcpdeu+Mg15cTH1jASDPzP3Rm4eJym2D/b6ugoX2Al+aQ5FOp1FTOx7ptHtPVCwtLUHNhGqk0mnXjhkn7XkLXUN4PQvwn7PuaKjzIFIk6C+OLUcq9RiAuXv/0yKWgMHhuyx5xrEStwMoH8r37uBpgEFLplIYX1OFRML9H+tEIoHqmnFIJLgSMFhFPNuiwpLCj93MEhV9TP77sAQMAgsAeWLWHVvmqWDIzzrnngCDIyKoqhrjyeS/TyKRwPjqcbwmYJCKebiVAmfNWrbtAhfjhN4hJv99WAIGiAWAXDe9fmNaRG4u5hi8E2BwRo4egXSJ90v06ZI0Rowc0M0ctNcg7gDok6h+56zbN5W4FCfUBjD578MSMAAsAOS60S2V/wrg8GKO0cwLAQcsmUph+PDK/r/QJcNHDOepgEFoLrbMCqa2l6Rjv2nQICb/fVgC+sECQK6acUfDMIheX+xxuCfAwI0cWdzV/oNlWYKRo7gKMFA7XXgti+DfTrttW5kLcUJpCJP/PiwBh8ACQK4ql/ynAakq9ji8E2BgLMtCecUw38etqKiAZfHvpz/teQudh9gDYOCkKlWpsbwtsIjJfx+WgIPgTzC5Zm5Gk6ryFbeOxzsB+lc2rNTIRXliCUqHlfo+bti4uZKliq/Oq9dYnXtxYfLfhyWgDywA5BpnwvbzIJjk1vF4GqB/ZaXmJuGyMhaA/hR7AeABDmtu3Xa2mwcMMhcn/31YAg7AAkCuUVVXL1TiCkD/Uj5c+X/QsVO8VbM/bt/NonD3ZyyotH56BVKp38O9yX+fRXrvSbE8ldIXFgByxZy73poE4J/cPCb3BOhfKmnuzyiV4t9Pf9x/DcuZp/1o2wSXDxoo7zzeF5jlweFXY1jJcg+OG0osAOSOvD0fLr+eeAqgf5aHD/7pd2wrVqejh8SNOwAOYKUSzsfcPmhQeLDsv7/VGFZ6lpy/ut2DY4cSCwC5QgXz3T4m7wSgMHPvDoB3U1iu/6wFASd///HdlYp2yp1vjAdwshfH3slHAh+SYzvmxnZsY2OHgXe7Wuqps+9qHOfRwY3g5G8GCwAVrURT/wTAk3vRmrJcZj6UfKFgbuy8ubHDwMP9LCyx8//g1cH9xsnfHBYAKpqq/qNXx+adAIeWy+WMjZ3P542NHQZe7mfhKP7Zs4P7iJO/WSwA5AKd6dWReSfAofV095gbu8vc2GHg5WtXgNM8O7hPOPmbxwJARZn7szdHQuRIr47POwEOrburG+qo7+Oqo+ju7vZ93DDx4A6A/R1zyu2bQrshAyf/YGABoKJoLnUCPHwddRUsdPBOgINyHEVnR6fv43Z0dsIxUDzCor3gzR0A+7HSpaUneDmAVzj5BwffWakoDpxjvB5jB+8EOKTWPe1Q9Xcybmtt83W8sPHj2hUV52jPB3EZJ/9g4foqFesorwdoyiYwtdzrUcKrkM+jbU8HRoys9GW8Pa1tvAOgHx7eAbAf8fxnT++dEZZlHk7+Q8AVACqOYIrXQ/BOgP61trSipyfr+TjZnixaW1o9HyfsvLwDYB9LMdXzQcKBk/8QsQBQsaq9HoB3AvRPVbGz+W3YBe8ezmMXbOxo3gWfzzaEkh+vWYWM93yQ4OPkXwQWACqW529CvBNgYGzbRlPTTti2+yXALthobtoB2+bS/0B4fAfAXlrlwyBBxsm/SCwAVKwRXg/AOwEGLp/LoWF7o6unA7I9WTS81YRcjg/+GQgf7gDYZ6QfgwQUJ38X8F2VilXqxyC8E2DgbNtBc2MzWlv2FP2MgD0tbWhqbPZkVSGqfLxmxZefvQDi5O8Srq1SsdJ+DNLMOwEGRRVobdmD9rYOjBw1HBUVFRBrYNs1qKPo6OxEG6/2HxIfT1nFsQBw8ncRCwAVy5fdengdwNDYto1db7egZXcrSoeVoaysFOlUGslUAolE4p2vKeRt5HJZ9PRk0d3VzYf8FKG5x7fXatx+KDj5uyxuLyAKKRaA4jiOoqujC10dXaajRF6zZ9sAxxonfw/wGgAKBR8/VREVZQdfq27j5O8RFgAKhU6bdwJQ8Pl4B0BccPL3EF+pFBq8E4CCjk+tdBUnf4+xAFBoNGd9ud6QaMh4rYprOPn7gK9WCg2+uVLQcQXAFU8h0XOunL+uw3SQqOMKAIUGCwAFHfetKIoNwfeR6PmwzN/Iyd8HfLVSaPBOAAo63gEwaJ0A3oTIf8Oy75T5G142HShO+Gql0Nh3J0BF0jEdheg9ongHgCxYN7DHR1IoRevVSpHHh6xQUO3kXSoUMiwAFCpcYqWgauJdKhQyLAAUKrwQkIKKdwBQ2LAAUKiwAFBQ8Q4AChsWAAoV3glAQcXTUxQ2LAAUKp129K60pvDriOAdABR9fMVS6HCplYKG+1RQGLEAUOhwqZWChncAUBixAFDo8EJAChreAUBhxAJAocMVAAoallIKIxYACh1eA0BBw7tTKIxYACh0eCcABQnvAKCw4quWQomrABQUvAOAwooFgEKJ1wFQUDTzDgAKKRYACiVedEVBwdcihRULAIUSVwAoKFgAKKxYACiUeA0ABQXvAKCwYgGgUOKdABQEvAOAwoyvXAotfvIi05pzfA1SeLEAUGjx3CuZxmtRKMxYACi0WADINL4GKcxYACi0+OmLTGMBoDBjAaDQ4p0AZBqvQ6Ew46uXQqvTttDQ0Gg6BsVYp11tOgLRkHEFgIiIKIZYAIiIiGKIBYCIiCiGWACIiIhiiAWAiIgohlgAiIiIYogFgIiIKIZYAIiIiGKIBYCIiCiGWACIiIhiiAWAiIgohlgAiIiIYogFgIiIKIZYAIiIiGKIBYCIiCiGWAAo1GyI6QgUU7bytUfhxgJAoZbThOkIFFNZvvYo5FgAKNT22CWmI1BM7XH42qNwYwGgUHvbLjMdgWJqJ197FHIsABRqWwuVpiNQTG3ja49CjgWAQu3N3HDkeS6WfJbXBDbnhpuOQVQUFgAKtQIsvJwbbToGxczLuVEo8O2TQo6vYAq953vG824A8o0NwfqeatMxiIrGAkCh1+WksC5bZToGxcSfe6rR5qRMxyAqGgsARcLa7vHYzouyyGMNhXKs7R5vOgaRK1gAKBIcCH7XeRhaeW82eaTNSeHVcXsFAAAC+UlEQVSxjql8+iRFBgsARUaPk8RvO6aizUmbjkIR0+ak8Uj7EejWpOkoRK5hAaBI2W2X4t72o3k6gFzTUCjH/W1HY7dTajoKkatYAChyepwkHm4/HM/3VHPDFhoyG4I1PTX4TfuR6OInf4ogvqopkmwInu2uwcbsGMwobcYx6RakxTYdi0Igpwn8NTcK63rGo52nkyjCWAAo0tqcNFZ0TcLKrgmYkmrDhFQ7xie6MdzKokRsJERNRySDbBX0IIF2uwTNdhm2FyqxJT8ceeXiKEWf5+uj93/9o3yHJSIiGqSLv/mwp3M0ay4REVEMsQAQERHFEAsAERFRDLEAEBERxRALABERUQyxABAREcUQCwAREVEMsQAQERHFEAsAERFRDLEAEBERxRALABERUQyxABAREcUQCwAREVEMsQAQERHFEAsAERFRDLEAEBERxRALABERUQyxABAREcUQCwAREVEMsQAQERHFEAsAERFRDLEAEBERxRALABERUQyxABAREcUQCwAREVEMsQAQERHFEAsAERFRDLEAEBERxRALABERUQyxABAREcUQCwAREVEMiekAxfr2FbPUdAYiIoqfa3+xKtRzKFcAiIiIYogFgIiIKIZYAIiIiGKIBYCIiCiGWACIiIhiiAWAiIgohlgAiIiIYogFgIiIKIZYAIiIiGKIBYCIiCiGWACIiIhiiAWAiIgohlgAiIiIYogFgIiIKIZYAIiIiGIoaTpAserqxpqOQEREFDpcASAiIoohFgAiIqIYYgEgIiKKIRYAIiKiGGIBICIiiiEWACIiohhiASAiIoohFgAiIqIYYgEgIiKKIRYAIiKiGGIBICIiiiEWACIiohhiASAiIoohFgAiIqIYYgEgIiIiIiIiIiIiIiIiIiIiIiIiIiIiIiIiIiIiIiIiIiIiIiIiIiIiIiIiIiIiIiIiIiIiIiIiIiIiIiIiIiIiIiIiIiIiIiIiIiIiIiIiIiIiIiIiIiIiIiIiIiIiIiIiIqJA+f8B2pwdOrEYzD4AAAAASUVORK5CYII=;" parent="1" vertex="1">
          <mxGeometry x="-80" y="1570" width="477.5" height="477.5" as="geometry" />
        </mxCell>
        <mxCell id="WLGKky_bHdKj5OCefhs1-229" value="&lt;font style=&quot;font-size: 33px;&quot;&gt;Registry of Identifiers&amp;nbsp;&lt;/font&gt;&lt;div&gt;&lt;font style=&quot;font-size: 33px;&quot;&gt;PostgreSQL Server&lt;/font&gt;&lt;/div&gt;" style="image;aspect=fixed;html=1;points=[];align=center;fontSize=12;image=img/lib/azure2/databases/Azure_Database_PostgreSQL_Server.svg;" parent="1" vertex="1">
          <mxGeometry x="947.5" y="-80" width="172.5" height="230" as="geometry" />
        </mxCell>
        <mxCell id="WLGKky_bHdKj5OCefhs1-230" value="&lt;font style=&quot;font-size: 31px;&quot;&gt;eFTI Gate&amp;nbsp;&lt;/font&gt;&lt;div&gt;&lt;span style=&quot;background-color: light-dark(#ffffff, var(--ge-dark-color, #121212)); color: light-dark(rgb(0, 0, 0), rgb(255, 255, 255));&quot;&gt;&lt;font style=&quot;font-size: 31px;&quot;&gt;PostgreSQL Server&lt;/font&gt;&lt;/span&gt;&lt;/div&gt;" style="image;aspect=fixed;html=1;points=[];align=center;fontSize=12;image=img/lib/azure2/databases/Azure_Database_PostgreSQL_Server.svg;" parent="1" vertex="1">
          <mxGeometry x="440" y="-80" width="172.5" height="230" as="geometry" />
        </mxCell>
        <mxCell id="WLGKky_bHdKj5OCefhs1-233" style="edgeStyle=orthogonalEdgeStyle;rounded=0;orthogonalLoop=1;jettySize=auto;html=1;exitX=0;exitY=0;exitDx=0;exitDy=15;exitPerimeter=0;entryX=-0.004;entryY=0.5;entryDx=0;entryDy=0;entryPerimeter=0;" parent="1" source="WLGKky_bHdKj5OCefhs1-44" target="WLGKky_bHdKj5OCefhs1-229" edge="1">
          <mxGeometry relative="1" as="geometry">
            <Array as="points">
              <mxPoint x="690" y="315" />
              <mxPoint x="690" y="210" />
              <mxPoint x="840" y="210" />
              <mxPoint x="840" y="35" />
            </Array>
          </mxGeometry>
        </mxCell>
        <mxCell id="WLGKky_bHdKj5OCefhs1-237" style="edgeStyle=orthogonalEdgeStyle;rounded=0;orthogonalLoop=1;jettySize=auto;html=1;exitX=0;exitY=0.75;exitDx=10;exitDy=0;exitPerimeter=0;entryX=0.997;entryY=0.388;entryDx=0;entryDy=0;entryPerimeter=0;" parent="1" source="WLGKky_bHdKj5OCefhs1-57" target="WLGKky_bHdKj5OCefhs1-230" edge="1">
          <mxGeometry relative="1" as="geometry">
            <Array as="points">
              <mxPoint x="670" y="563" />
              <mxPoint x="670" y="9" />
            </Array>
          </mxGeometry>
        </mxCell>
        <mxCell id="WLGKky_bHdKj5OCefhs1-238" style="edgeStyle=orthogonalEdgeStyle;rounded=0;orthogonalLoop=1;jettySize=auto;html=1;exitX=0;exitY=0.75;exitDx=10;exitDy=0;exitPerimeter=0;entryX=1.002;entryY=0.388;entryDx=0;entryDy=0;entryPerimeter=0;" parent="1" source="WLGKky_bHdKj5OCefhs1-61" target="WLGKky_bHdKj5OCefhs1-230" edge="1">
          <mxGeometry relative="1" as="geometry">
            <Array as="points">
              <mxPoint x="670" y="653" />
              <mxPoint x="670" y="9" />
            </Array>
          </mxGeometry>
        </mxCell>
        <mxCell id="WLGKky_bHdKj5OCefhs1-239" style="edgeStyle=orthogonalEdgeStyle;rounded=0;orthogonalLoop=1;jettySize=auto;html=1;exitX=0;exitY=0.75;exitDx=10;exitDy=0;exitPerimeter=0;entryX=1;entryY=0.388;entryDx=0;entryDy=0;entryPerimeter=0;" parent="1" source="WLGKky_bHdKj5OCefhs1-67" target="WLGKky_bHdKj5OCefhs1-230" edge="1">
          <mxGeometry relative="1" as="geometry">
            <Array as="points">
              <mxPoint x="670" y="743" />
              <mxPoint x="670" y="9" />
            </Array>
          </mxGeometry>
        </mxCell>
        <mxCell id="WLGKky_bHdKj5OCefhs1-240" style="edgeStyle=orthogonalEdgeStyle;rounded=0;orthogonalLoop=1;jettySize=auto;html=1;exitX=0;exitY=0.75;exitDx=10;exitDy=0;exitPerimeter=0;entryX=1.002;entryY=0.39;entryDx=0;entryDy=0;entryPerimeter=0;" parent="1" source="WLGKky_bHdKj5OCefhs1-74" target="WLGKky_bHdKj5OCefhs1-230" edge="1">
          <mxGeometry relative="1" as="geometry">
            <Array as="points">
              <mxPoint x="670" y="957" />
              <mxPoint x="670" y="10" />
            </Array>
          </mxGeometry>
        </mxCell>
        <mxCell id="WLGKky_bHdKj5OCefhs1-241" value="&lt;font style=&quot;font-size: 25px;&quot;&gt;Harmony eDelivery Access&amp;nbsp;&lt;/font&gt;&lt;div&gt;&lt;font style=&quot;font-size: 25px;&quot;&gt;MySQL Server&lt;/font&gt;&lt;/div&gt;" style="image;aspect=fixed;html=1;points=[];align=center;fontSize=12;image=img/lib/azure2/databases/Azure_Database_MySQL_Server.svg;" parent="1" vertex="1">
          <mxGeometry x="-750" y="880" width="180" height="240" as="geometry" />
        </mxCell>
        <mxCell id="WLGKky_bHdKj5OCefhs1-246" value="RabbitMQ Queue System" style="shape=image;verticalLabelPosition=bottom;labelBackgroundColor=default;verticalAlign=top;aspect=fixed;imageAspect=0;editableCssRules=.*;image=data:image/svg+xml,PHN2ZyB4bWxucz0iaHR0cDovL3d3dy53My5vcmcvMjAwMC9zdmciIHByZXNlcnZlQXNwZWN0UmF0aW89InhNaWRZTWlkIiB2aWV3Qm94PSIwIDAgMjU2IDI3MC43Njk5ODkwMTM2NzE5IiBoZWlnaHQ9IjI0OTcuODc4MTI3NDMyMzk3NCIgd2lkdGg9IjIzNjIiPjxwYXRoIGZpbGw9IiNGNjAiIGQ9Ik0yNDUuNDQgMTA4LjMwOGgtODUuMDlhNy43MzggNy43MzggMCAwIDEtNy43MzUtNy43MzR2LTg4LjY4QzE1Mi42MTUgNS4zMjcgMTQ3LjI5IDAgMTQwLjcyNiAwaC0zMC4zNzVjLTYuNTY4IDAtMTEuODkgNS4zMjctMTEuODkgMTEuODk0djg4LjE0M2MwIDQuNTczLTMuNjk3IDguMjktOC4yNyA4LjMxbC0yNy44ODUuMTMzYy00LjYxMi4wMjUtOC4zNTktMy43MTctOC4zNS04LjMyNWwuMTczLTg4LjI0MUM1NC4xNDQgNS4zMzcgNDguODE3IDAgNDIuMjQgMEgxMS44OUM1LjMyMSAwIDAgNS4zMjcgMCAxMS44OTRWMjYwLjIxYzAgNS44MzQgNC43MjYgMTAuNTYgMTAuNTU1IDEwLjU2SDI0NS40NGM1LjgzNCAwIDEwLjU2LTQuNzI2IDEwLjU2LTEwLjU2VjExOC44NjhjMC01LjgzNC00LjcyNi0xMC41Ni0xMC41Ni0xMC41NnptLTM5LjkwMiA5My4yMzNjMCA3LjY0NS02LjE5OCAxMy44NDQtMTMuODQzIDEzLjg0NEgxNjcuNjljLTcuNjQ2IDAtMTMuODQ0LTYuMTk5LTEzLjg0NC0xMy44NDR2LTI0LjAwNWMwLTcuNjQ2IDYuMTk4LTEzLjg0NCAxMy44NDQtMTMuODQ0aDI0LjAwNWM3LjY0NSAwIDEzLjg0MyA2LjE5OCAxMy44NDMgMTMuODQ0djI0LjAwNXoiLz48L3N2Zz4=;fontSize=30;strokeWidth=6;" parent="1" vertex="1">
          <mxGeometry x="1330" y="-68.09" width="195" height="206.17" as="geometry" />
        </mxCell>
        <mxCell id="WLGKky_bHdKj5OCefhs1-248" value="&lt;font style=&quot;font-size: 17px;&quot;&gt;(Used for managing authority messages asyncronously)&lt;/font&gt;" style="text;html=1;align=center;verticalAlign=middle;whiteSpace=wrap;rounded=0;" parent="1" vertex="1">
          <mxGeometry x="1260" y="185" width="340" height="30" as="geometry" />
        </mxCell>
        <mxCell id="WLGKky_bHdKj5OCefhs1-265" style="edgeStyle=orthogonalEdgeStyle;rounded=0;orthogonalLoop=1;jettySize=auto;html=1;exitX=0;exitY=0;exitDx=405;exitDy=780;exitPerimeter=0;entryX=0;entryY=0;entryDx=595;entryDy=0;entryPerimeter=0;strokeWidth=7;startArrow=classic;startFill=1;" parent="1" source="WLGKky_bHdKj5OCefhs1-92" target="WLGKky_bHdKj5OCefhs1-18" edge="1">
          <mxGeometry relative="1" as="geometry" />
        </mxCell>
        <mxCell id="WLGKky_bHdKj5OCefhs1-266" style="edgeStyle=orthogonalEdgeStyle;rounded=0;orthogonalLoop=1;jettySize=auto;html=1;exitX=0;exitY=0;exitDx=605;exitDy=1560;exitPerimeter=0;entryX=0;entryY=0;entryDx=555;entryDy=0;entryPerimeter=0;strokeWidth=7;startArrow=classic;startFill=1;" parent="1" source="WLGKky_bHdKj5OCefhs1-18" target="WLGKky_bHdKj5OCefhs1-114" edge="1">
          <mxGeometry relative="1" as="geometry" />
        </mxCell>
        <mxCell id="WLGKky_bHdKj5OCefhs1-267" style="edgeStyle=orthogonalEdgeStyle;rounded=0;orthogonalLoop=1;jettySize=auto;html=1;exitX=1;exitY=0.59;exitDx=0;exitDy=0;exitPerimeter=0;entryX=0;entryY=0;entryDx=495;entryDy=0;entryPerimeter=0;strokeWidth=7;" parent="1" source="WLGKky_bHdKj5OCefhs1-18" target="WLGKky_bHdKj5OCefhs1-204" edge="1">
          <mxGeometry relative="1" as="geometry">
            <Array as="points">
              <mxPoint x="870" y="1130" />
              <mxPoint x="630" y="1130" />
              <mxPoint x="630" y="1895" />
            </Array>
          </mxGeometry>
        </mxCell>
        <mxCell id="WLGKky_bHdKj5OCefhs1-249" value="&lt;font style=&quot;font-size: 60px;&quot;&gt;Reverse Proxy&lt;/font&gt;" style="verticalAlign=top;align=left;spacingTop=8;spacingLeft=2;spacingRight=12;shape=cube;size=10;direction=south;fontStyle=4;html=1;whiteSpace=wrap;strokeWidth=5;fillColor=#d5e8d4;strokeColor=#82b366;gradientColor=#97d077;" parent="1" vertex="1">
          <mxGeometry x="3090" y="1300" width="480" height="390" as="geometry" />
        </mxCell>
        <mxCell id="3odMCYDfKdZ8ykpnIXUM-3" style="edgeStyle=orthogonalEdgeStyle;rounded=0;orthogonalLoop=1;jettySize=auto;html=1;exitX=0;exitY=0;exitDx=0;exitDy=775;exitPerimeter=0;entryX=0;entryY=0;entryDx=0;entryDy=235.00000000000003;entryPerimeter=0;strokeWidth=7;" edge="1" parent="1" source="WLGKky_bHdKj5OCefhs1-18" target="WLGKky_bHdKj5OCefhs1-249">
          <mxGeometry relative="1" as="geometry" />
        </mxCell>
        <mxCell id="3odMCYDfKdZ8ykpnIXUM-4" style="edgeStyle=orthogonalEdgeStyle;rounded=0;orthogonalLoop=1;jettySize=auto;html=1;entryX=0;entryY=0;entryDx=0;entryDy=235.00000000000003;entryPerimeter=0;strokeWidth=7;" edge="1" parent="1" source="WLGKky_bHdKj5OCefhs1-92" target="WLGKky_bHdKj5OCefhs1-249">
          <mxGeometry relative="1" as="geometry" />
        </mxCell>
        <mxCell id="3odMCYDfKdZ8ykpnIXUM-8" value="" style="fontColor=#0066CC;verticalAlign=top;verticalLabelPosition=bottom;labelPosition=center;align=center;html=1;outlineConnect=0;fillColor=#CCCCCC;strokeColor=#6881B3;gradientColor=none;gradientDirection=north;strokeWidth=2;shape=mxgraph.networks.proxy_server;" vertex="1" parent="1">
          <mxGeometry x="3190" y="1390" width="290" height="290" as="geometry" />
        </mxCell>
      </root>
    </mxGraphModel>
  </diagram>
</mxfile>
